<svg width="1215" height="275" viewBox="0 0 1215 275" fill="none" xmlns="http://www.w3.org/2000/svg">
<g clip-path="url(#clip0)">
<g filter="url(#filter0_i)">
<path d="M321.977 129.736C322.649 130.792 323.225 132.232 323.705 134.056C324.281 135.784 324.569 137.608 324.569 139.528C324.569 143.272 323.753 145.96 322.121 147.592C320.585 149.128 318.473 149.896 315.785 149.896H285.545V166.168H317.081C317.849 167.224 318.473 168.616 318.953 170.344C319.529 172.072 319.817 173.896 319.817 175.816C319.817 179.464 319.001 182.104 317.369 183.736C315.833 185.272 313.721 186.04 311.033 186.04H285.833V216.424C284.777 216.712 283.097 217 280.793 217.288C278.585 217.576 276.377 217.72 274.169 217.72C271.961 217.72 269.993 217.528 268.265 217.144C266.633 216.856 265.241 216.28 264.089 215.416C262.937 214.552 262.073 213.352 261.497 211.816C260.921 210.28 260.633 208.264 260.633 205.768V143.128C260.633 139 261.833 135.736 264.233 133.336C266.633 130.936 269.897 129.736 274.025 129.736H321.977ZM369.035 219.304C363.371 219.304 358.091 218.536 353.195 217C348.395 215.368 344.171 212.968 340.523 209.8C336.971 206.632 334.139 202.648 332.027 197.848C330.011 193.048 329.003 187.432 329.003 181C329.003 174.664 330.011 169.24 332.027 164.728C334.139 160.12 336.875 156.376 340.235 153.496C343.595 150.52 347.435 148.36 351.755 147.016C356.075 145.576 360.491 144.856 365.003 144.856C370.091 144.856 374.699 145.624 378.827 147.16C383.051 148.696 386.651 150.808 389.627 153.496C392.699 156.184 395.051 159.4 396.683 163.144C398.411 166.888 399.275 170.968 399.275 175.384C399.275 178.648 398.363 181.144 396.539 182.872C394.715 184.6 392.171 185.704 388.907 186.184L353.339 191.512C354.395 194.68 356.555 197.08 359.819 198.712C363.083 200.248 366.827 201.016 371.051 201.016C374.987 201.016 378.683 200.536 382.139 199.576C385.691 198.52 388.571 197.32 390.779 195.976C392.315 196.936 393.611 198.28 394.667 200.008C395.723 201.736 396.251 203.56 396.251 205.48C396.251 209.8 394.235 213.016 390.203 215.128C387.131 216.76 383.675 217.864 379.835 218.44C375.995 219.016 372.395 219.304 369.035 219.304ZM365.003 162.712C362.699 162.712 360.683 163.096 358.955 163.864C357.323 164.632 355.979 165.64 354.923 166.888C353.867 168.04 353.051 169.384 352.475 170.92C351.995 172.36 351.707 173.848 351.611 175.384L376.235 171.352C375.947 169.432 374.891 167.512 373.067 165.592C371.243 163.672 368.555 162.712 365.003 162.712ZM448.066 219.304C442.402 219.304 437.122 218.536 432.226 217C427.426 215.368 423.202 212.968 419.554 209.8C416.002 206.632 413.17 202.648 411.058 197.848C409.042 193.048 408.034 187.432 408.034 181C408.034 174.664 409.042 169.24 411.058 164.728C413.17 160.12 415.906 156.376 419.266 153.496C422.626 150.52 426.466 148.36 430.786 147.016C435.106 145.576 439.522 144.856 444.034 144.856C449.122 144.856 453.73 145.624 457.858 147.16C462.082 148.696 465.682 150.808 468.658 153.496C471.73 156.184 474.082 159.4 475.714 163.144C477.442 166.888 478.306 170.968 478.306 175.384C478.306 178.648 477.394 181.144 475.57 182.872C473.746 184.6 471.202 185.704 467.938 186.184L432.37 191.512C433.426 194.68 435.586 197.08 438.85 198.712C442.114 200.248 445.858 201.016 450.082 201.016C454.018 201.016 457.714 200.536 461.17 199.576C464.722 198.52 467.602 197.32 469.81 195.976C471.346 196.936 472.642 198.28 473.698 200.008C474.754 201.736 475.282 203.56 475.282 205.48C475.282 209.8 473.266 213.016 469.234 215.128C466.162 216.76 462.706 217.864 458.866 218.44C455.026 219.016 451.426 219.304 448.066 219.304ZM444.034 162.712C441.73 162.712 439.714 163.096 437.986 163.864C436.354 164.632 435.01 165.64 433.954 166.888C432.898 168.04 432.082 169.384 431.506 170.92C431.026 172.36 430.738 173.848 430.642 175.384L455.266 171.352C454.978 169.432 453.922 167.512 452.098 165.592C450.274 163.672 447.586 162.712 444.034 162.712ZM487.066 182.008C487.066 175.672 488.026 170.2 489.946 165.592C491.866 160.888 494.506 157 497.866 153.928C501.322 150.856 505.306 148.6 509.818 147.16C514.426 145.624 519.37 144.856 524.65 144.856C526.57 144.856 528.442 145.048 530.266 145.432C532.09 145.72 533.578 146.104 534.73 146.584V123.256C535.69 122.968 537.226 122.68 539.338 122.392C541.45 122.008 543.61 121.816 545.818 121.816C547.93 121.816 549.802 121.96 551.434 122.248C553.162 122.536 554.602 123.112 555.754 123.976C556.906 124.84 557.77 126.04 558.346 127.576C558.922 129.016 559.21 130.936 559.21 133.336V201.592C559.21 206.104 557.098 209.704 552.874 212.392C550.09 214.216 546.49 215.8 542.074 217.144C537.658 218.584 532.57 219.304 526.81 219.304C520.57 219.304 514.954 218.44 509.962 216.712C505.066 214.984 500.89 212.488 497.434 209.224C494.074 205.96 491.482 202.072 489.658 197.56C487.93 192.952 487.066 187.768 487.066 182.008ZM527.962 164.008C522.778 164.008 518.794 165.496 516.01 168.472C513.226 171.448 511.834 175.96 511.834 182.008C511.834 187.96 513.13 192.472 515.722 195.544C518.314 198.52 522.058 200.008 526.954 200.008C528.682 200.008 530.218 199.768 531.562 199.288C533.002 198.712 534.106 198.088 534.874 197.416V165.736C532.954 164.584 530.65 164.008 527.962 164.008ZM627.773 192.952C627.773 195.448 628.541 197.224 630.077 198.28C631.709 199.336 633.965 199.864 636.845 199.864C638.285 199.864 639.773 199.768 641.309 199.576C642.845 199.288 644.189 198.952 645.341 198.568C646.205 199.624 646.925 200.824 647.501 202.168C648.173 203.416 648.509 204.952 648.509 206.776C648.509 210.424 647.117 213.4 644.333 215.704C641.645 218.008 636.845 219.16 629.933 219.16C621.485 219.16 614.957 217.24 610.349 213.4C605.837 209.56 603.581 203.32 603.581 194.68V133.048C604.637 132.76 606.125 132.472 608.045 132.184C610.061 131.8 612.173 131.608 614.381 131.608C618.605 131.608 621.869 132.376 624.173 133.912C626.573 135.352 627.773 138.472 627.773 143.272V152.488H646.637C647.213 153.544 647.741 154.888 648.221 156.52C648.797 158.056 649.085 159.784 649.085 161.704C649.085 165.064 648.317 167.512 646.781 169.048C645.341 170.488 643.373 171.208 640.877 171.208H627.773V192.952ZM730.069 216.856C729.109 217.144 727.573 217.432 725.461 217.72C723.445 218.008 721.333 218.152 719.125 218.152C717.013 218.152 715.093 218.008 713.365 217.72C711.733 217.432 710.341 216.856 709.189 215.992C708.037 215.128 707.125 213.976 706.453 212.536C705.877 211 705.589 209.032 705.589 206.632V174.664C705.589 170.728 704.581 167.992 702.565 166.456C700.645 164.824 698.245 164.008 695.365 164.008C693.445 164.008 691.621 164.248 689.893 164.728C688.165 165.208 686.773 165.784 685.717 166.456V216.856C684.757 217.144 683.221 217.432 681.109 217.72C679.093 218.008 676.981 218.152 674.773 218.152C672.661 218.152 670.741 218.008 669.013 217.72C667.381 217.432 665.989 216.856 664.837 215.992C663.685 215.128 662.773 213.976 662.101 212.536C661.525 211 661.237 209.032 661.237 206.632V123.112C662.293 122.92 663.829 122.68 665.845 122.392C667.957 122.008 670.069 121.816 672.181 121.816C674.293 121.816 676.165 121.96 677.797 122.248C679.525 122.536 680.965 123.112 682.117 123.976C683.269 124.84 684.133 126.04 684.709 127.576C685.381 129.016 685.717 130.936 685.717 133.336V147.448C686.965 146.968 688.837 146.44 691.333 145.864C693.925 145.192 696.757 144.856 699.829 144.856C709.333 144.856 716.725 147.256 722.005 152.056C727.381 156.76 730.069 163.816 730.069 173.224V216.856ZM782.191 219.304C776.527 219.304 771.247 218.536 766.351 217C761.551 215.368 757.327 212.968 753.679 209.8C750.127 206.632 747.295 202.648 745.183 197.848C743.167 193.048 742.159 187.432 742.159 181C742.159 174.664 743.167 169.24 745.183 164.728C747.295 160.12 750.031 156.376 753.391 153.496C756.751 150.52 760.591 148.36 764.911 147.016C769.231 145.576 773.647 144.856 778.159 144.856C783.247 144.856 787.855 145.624 791.983 147.16C796.207 148.696 799.807 150.808 802.783 153.496C805.855 156.184 808.207 159.4 809.839 163.144C811.567 166.888 812.431 170.968 812.431 175.384C812.431 178.648 811.519 181.144 809.695 182.872C807.871 184.6 805.327 185.704 802.063 186.184L766.495 191.512C767.551 194.68 769.711 197.08 772.975 198.712C776.239 200.248 779.983 201.016 784.207 201.016C788.143 201.016 791.839 200.536 795.295 199.576C798.847 198.52 801.727 197.32 803.935 195.976C805.471 196.936 806.767 198.28 807.823 200.008C808.879 201.736 809.407 203.56 809.407 205.48C809.407 209.8 807.391 213.016 803.359 215.128C800.287 216.76 796.831 217.864 792.991 218.44C789.151 219.016 785.551 219.304 782.191 219.304ZM778.159 162.712C775.855 162.712 773.839 163.096 772.111 163.864C770.479 164.632 769.135 165.64 768.079 166.888C767.023 168.04 766.207 169.384 765.631 170.92C765.151 172.36 764.863 173.848 764.767 175.384L789.391 171.352C789.103 169.432 788.047 167.512 786.223 165.592C784.399 163.672 781.711 162.712 778.159 162.712ZM933.971 213.976C932.627 215.32 930.659 216.328 928.067 217C925.571 217.768 922.547 218.152 918.995 218.152C915.443 218.152 912.083 217.624 908.915 216.568C905.747 215.512 903.155 212.968 901.139 208.936L886.883 179.848C885.443 176.872 884.147 174.088 882.995 171.496C881.843 168.808 880.595 165.736 879.251 162.28L878.387 162.424C878.771 167.608 878.963 172.888 878.963 178.264C879.059 183.64 879.107 188.92 879.107 194.104V216.424C878.051 216.712 876.419 217 874.211 217.288C872.099 217.576 869.987 217.72 867.875 217.72C865.763 217.72 863.891 217.576 862.259 217.288C860.627 217 859.283 216.424 858.227 215.56C857.171 214.696 856.355 213.544 855.779 212.104C855.203 210.568 854.915 208.6 854.915 206.2V134.2C856.259 132.28 858.323 130.84 861.107 129.88C863.891 128.92 866.867 128.44 870.035 128.44C873.587 128.44 876.947 129.016 880.115 130.168C883.379 131.224 885.971 133.72 887.891 137.656L902.291 166.744C903.731 169.72 905.027 172.552 906.179 175.24C907.331 177.832 908.579 180.856 909.923 184.312L910.643 184.168C910.259 178.984 910.019 173.8 909.923 168.616C909.827 163.432 909.779 158.248 909.779 153.064V129.736C910.835 129.448 912.419 129.16 914.531 128.872C916.739 128.584 918.899 128.44 921.011 128.44C925.235 128.44 928.451 129.208 930.659 130.744C932.867 132.184 933.971 135.256 933.971 139.96V213.976ZM987.785 219.304C982.121 219.304 976.841 218.536 971.945 217C967.145 215.368 962.921 212.968 959.273 209.8C955.721 206.632 952.889 202.648 950.777 197.848C948.761 193.048 947.753 187.432 947.753 181C947.753 174.664 948.761 169.24 950.777 164.728C952.889 160.12 955.625 156.376 958.985 153.496C962.345 150.52 966.185 148.36 970.505 147.016C974.825 145.576 979.241 144.856 983.753 144.856C988.841 144.856 993.449 145.624 997.577 147.16C1001.8 148.696 1005.4 150.808 1008.38 153.496C1011.45 156.184 1013.8 159.4 1015.43 163.144C1017.16 166.888 1018.03 170.968 1018.03 175.384C1018.03 178.648 1017.11 181.144 1015.29 182.872C1013.47 184.6 1010.92 185.704 1007.66 186.184L972.089 191.512C973.145 194.68 975.305 197.08 978.569 198.712C981.833 200.248 985.577 201.016 989.801 201.016C993.737 201.016 997.433 200.536 1000.89 199.576C1004.44 198.52 1007.32 197.32 1009.53 195.976C1011.07 196.936 1012.36 198.28 1013.42 200.008C1014.47 201.736 1015 203.56 1015 205.48C1015 209.8 1012.99 213.016 1008.95 215.128C1005.88 216.76 1002.43 217.864 998.585 218.44C994.745 219.016 991.145 219.304 987.785 219.304ZM983.753 162.712C981.449 162.712 979.433 163.096 977.705 163.864C976.073 164.632 974.729 165.64 973.673 166.888C972.617 168.04 971.801 169.384 971.225 170.92C970.745 172.36 970.457 173.848 970.361 175.384L994.985 171.352C994.697 169.432 993.641 167.512 991.817 165.592C989.993 163.672 987.305 162.712 983.753 162.712ZM1066.82 219.304C1061.15 219.304 1055.87 218.536 1050.98 217C1046.18 215.368 1041.95 212.968 1038.3 209.8C1034.75 206.632 1031.92 202.648 1029.81 197.848C1027.79 193.048 1026.78 187.432 1026.78 181C1026.78 174.664 1027.79 169.24 1029.81 164.728C1031.92 160.12 1034.66 156.376 1038.02 153.496C1041.38 150.52 1045.22 148.36 1049.54 147.016C1053.86 145.576 1058.27 144.856 1062.78 144.856C1067.87 144.856 1072.48 145.624 1076.61 147.16C1080.83 148.696 1084.43 150.808 1087.41 153.496C1090.48 156.184 1092.83 159.4 1094.46 163.144C1096.19 166.888 1097.06 170.968 1097.06 175.384C1097.06 178.648 1096.14 181.144 1094.32 182.872C1092.5 184.6 1089.95 185.704 1086.69 186.184L1051.12 191.512C1052.18 194.68 1054.34 197.08 1057.6 198.712C1060.86 200.248 1064.61 201.016 1068.83 201.016C1072.77 201.016 1076.46 200.536 1079.92 199.576C1083.47 198.52 1086.35 197.32 1088.56 195.976C1090.1 196.936 1091.39 198.28 1092.45 200.008C1093.5 201.736 1094.03 203.56 1094.03 205.48C1094.03 209.8 1092.02 213.016 1087.98 215.128C1084.91 216.76 1081.46 217.864 1077.62 218.44C1073.78 219.016 1070.18 219.304 1066.82 219.304ZM1062.78 162.712C1060.48 162.712 1058.46 163.096 1056.74 163.864C1055.1 164.632 1053.76 165.64 1052.7 166.888C1051.65 168.04 1050.83 169.384 1050.26 170.92C1049.78 172.36 1049.49 173.848 1049.39 175.384L1074.02 171.352C1073.73 169.432 1072.67 167.512 1070.85 165.592C1069.02 163.672 1066.34 162.712 1062.78 162.712ZM1105.82 182.008C1105.82 175.672 1106.78 170.2 1108.7 165.592C1110.62 160.888 1113.26 157 1116.62 153.928C1120.07 150.856 1124.06 148.6 1128.57 147.16C1133.18 145.624 1138.12 144.856 1143.4 144.856C1145.32 144.856 1147.19 145.048 1149.02 145.432C1150.84 145.72 1152.33 146.104 1153.48 146.584V123.256C1154.44 122.968 1155.98 122.68 1158.09 122.392C1160.2 122.008 1162.36 121.816 1164.57 121.816C1166.68 121.816 1168.55 121.96 1170.18 122.248C1171.91 122.536 1173.35 123.112 1174.5 123.976C1175.66 124.84 1176.52 126.04 1177.1 127.576C1177.67 129.016 1177.96 130.936 1177.96 133.336V201.592C1177.96 206.104 1175.85 209.704 1171.62 212.392C1168.84 214.216 1165.24 215.8 1160.82 217.144C1156.41 218.584 1151.32 219.304 1145.56 219.304C1139.32 219.304 1133.7 218.44 1128.71 216.712C1123.82 214.984 1119.64 212.488 1116.18 209.224C1112.82 205.96 1110.23 202.072 1108.41 197.56C1106.68 192.952 1105.82 187.768 1105.82 182.008ZM1146.71 164.008C1141.53 164.008 1137.54 165.496 1134.76 168.472C1131.98 171.448 1130.58 175.96 1130.58 182.008C1130.58 187.96 1131.88 192.472 1134.47 195.544C1137.06 198.52 1140.81 200.008 1145.7 200.008C1147.43 200.008 1148.97 199.768 1150.31 199.288C1151.75 198.712 1152.86 198.088 1153.62 197.416V165.736C1151.7 164.584 1149.4 164.008 1146.71 164.008Z" fill="url(#paint0_linear)"/>
</g>
<g filter="url(#filter1_d)">
<path d="M119.5 161.046H104.5L122.5 173.046L138 172.546L119.5 161.046Z" fill="#FFA822"/>
<path d="M83.9999 131.046C85.9999 141.046 91.9999 146.879 96.9999 153.546L107.5 154.046C94.2999 148.446 88.3333 136.379 86.9999 131.046H83.9999Z" fill="#FFA822"/>
<path d="M95.5 126.546C87.5 125.746 82.8333 124.213 81.4999 123.546C78.3524 102.3 78.0106 80.7634 96.0818 58.6512C96.3731 58.2521 96.6789 57.8831 96.9999 57.546C96.6887 57.9146 96.3827 58.283 96.0818 58.6512C87.2987 70.6851 91.7897 110.092 95.5 126.546Z" fill="#FFA822"/>
</g>
<g filter="url(#filter2_d)">
<path d="M123 123.546C115.4 126.346 106.833 127.046 103.5 127.046C89.5 96.046 105 50.046 109.5 46.046C113.398 42.5811 125.667 35.8794 132 33.546C112 49.946 115.5 107.046 123 123.546Z" fill="#FFA822"/>
</g>
<g filter="url(#filter3_d)">
<path d="M122 215.417C85.2 197.417 68 142.583 64 117.417C64.8333 112.583 67.5 105.517 71.5 115.917C70.3 127.517 86 154.917 100.5 166.417C105 171.917 152 194.417 159.5 187.917C168.584 180.044 101 143.917 96 137.917C92 133.117 95.6667 131.25 98 130.917C121.6 133.717 168 151.417 185.5 163.917C203.5 174.317 217.5 203.917 217.5 218.417C201 224.917 158.8 233.417 122 215.417Z" fill="#134E6F"/>
</g>
<g filter="url(#filter4_d)">
<path d="M151.5 104.546L129.5 120.046C116.3 61.246 136 39.546 142 31.546C150.4 28.746 160.333 30.3794 164 31.546C141.2 47.946 146.167 87.046 151.5 104.546Z" fill="#FFA822"/>
</g>
<g filter="url(#filter5_d)">
<path d="M156.5 109.046C146.9 120.246 130.5 128.713 123.5 131.546L154 141.046L181.5 118.546L156.5 109.046Z" fill="#FFA822"/>
<path d="M162 145.046L187.5 123.546L201 139.046L183 156.546L162 145.046Z" fill="#FFA822"/>
<path d="M207.5 158.046L204.5 145.046L189 159.546L198 166.046C201.2 165.246 205.667 160.379 207.5 158.046Z" fill="#FFA822"/>
<path d="M154 75.546C154 90.046 158 100.546 158 102.546C198 110.146 211.333 138.046 213 151.046C221 143.046 224 134.713 224.5 131.546C210.9 92.346 171.833 77.8794 154 75.546Z" fill="#FFA822"/>
<path d="M154 67.546C156 56.346 159.833 50.2127 161.5 48.546C199.5 49.546 227 87.046 228.5 94.546C229.7 100.546 228 114.046 227 120.046C212.2 85.646 172.167 70.7127 154 67.546Z" fill="#FFA822"/>
<path d="M173 33.046L165 42.046C187.4 42.046 214 65.046 224.5 76.546C207.3 42.946 183 33.546 173 33.046Z" fill="#FFA822"/>
</g>
</g>
<defs>
<filter id="filter0_i" x="260.633" y="121.816" width="917.326" height="101.488" filterUnits="userSpaceOnUse" color-interpolation-filters="sRGB">
<feFlood flood-opacity="0" result="BackgroundImageFix"/>
<feBlend mode="normal" in="SourceGraphic" in2="BackgroundImageFix" result="shape"/>
<feColorMatrix in="SourceAlpha" type="matrix" values="0 0 0 0 0 0 0 0 0 0 0 0 0 0 0 0 0 0 127 0" result="hardAlpha"/>
<feOffset dy="4"/>
<feGaussianBlur stdDeviation="2"/>
<feComposite in2="hardAlpha" operator="arithmetic" k2="-1" k3="1"/>
<feColorMatrix type="matrix" values="0 0 0 0 0 0 0 0 0 0 0 0 0 0 0 0 0 0 0.25 0"/>
<feBlend mode="normal" in2="shape" result="effect1_innerShadow"/>
</filter>
<filter id="filter1_d" x="75.8457" y="57.546" width="66.1542" height="123.5" filterUnits="userSpaceOnUse" color-interpolation-filters="sRGB">
<feFlood flood-opacity="0" result="BackgroundImageFix"/>
<feColorMatrix in="SourceAlpha" type="matrix" values="0 0 0 0 0 0 0 0 0 0 0 0 0 0 0 0 0 0 127 0"/>
<feOffset dy="4"/>
<feGaussianBlur stdDeviation="2"/>
<feColorMatrix type="matrix" values="0 0 0 0 0 0 0 0 0 0 0 0 0 0 0 0 0 0 0.25 0"/>
<feBlend mode="normal" in2="BackgroundImageFix" result="effect1_dropShadow"/>
<feBlend mode="normal" in="SourceGraphic" in2="effect1_dropShadow" result="shape"/>
</filter>
<filter id="filter2_d" x="93.7714" y="33.546" width="42.2286" height="101.5" filterUnits="userSpaceOnUse" color-interpolation-filters="sRGB">
<feFlood flood-opacity="0" result="BackgroundImageFix"/>
<feColorMatrix in="SourceAlpha" type="matrix" values="0 0 0 0 0 0 0 0 0 0 0 0 0 0 0 0 0 0 127 0"/>
<feOffset dy="4"/>
<feGaussianBlur stdDeviation="2"/>
<feColorMatrix type="matrix" values="0 0 0 0 0 0 0 0 0 0 0 0 0 0 0 0 0 0 0.25 0"/>
<feBlend mode="normal" in2="BackgroundImageFix" result="effect1_dropShadow"/>
<feBlend mode="normal" in="SourceGraphic" in2="effect1_dropShadow" result="shape"/>
</filter>
<filter id="filter3_d" x="60" y="110.546" width="161.5" height="123.669" filterUnits="userSpaceOnUse" color-interpolation-filters="sRGB">
<feFlood flood-opacity="0" result="BackgroundImageFix"/>
<feColorMatrix in="SourceAlpha" type="matrix" values="0 0 0 0 0 0 0 0 0 0 0 0 0 0 0 0 0 0 127 0"/>
<feOffset dy="4"/>
<feGaussianBlur stdDeviation="2"/>
<feColorMatrix type="matrix" values="0 0 0 0 0 0 0 0 0 0 0 0 0 0 0 0 0 0 0.25 0"/>
<feBlend mode="normal" in2="BackgroundImageFix" result="effect1_dropShadow"/>
<feBlend mode="normal" in="SourceGraphic" in2="effect1_dropShadow" result="shape"/>
</filter>
<filter id="filter4_d" x="121.037" y="30" width="46.9634" height="98.046" filterUnits="userSpaceOnUse" color-interpolation-filters="sRGB">
<feFlood flood-opacity="0" result="BackgroundImageFix"/>
<feColorMatrix in="SourceAlpha" type="matrix" values="0 0 0 0 0 0 0 0 0 0 0 0 0 0 0 0 0 0 127 0"/>
<feOffset dy="4"/>
<feGaussianBlur stdDeviation="2"/>
<feColorMatrix type="matrix" values="0 0 0 0 0 0 0 0 0 0 0 0 0 0 0 0 0 0 0.25 0"/>
<feBlend mode="normal" in2="BackgroundImageFix" result="effect1_dropShadow"/>
<feBlend mode="normal" in="SourceGraphic" in2="effect1_dropShadow" result="shape"/>
</filter>
<filter id="filter5_d" x="119.5" y="33.046" width="113.413" height="141" filterUnits="userSpaceOnUse" color-interpolation-filters="sRGB">
<feFlood flood-opacity="0" result="BackgroundImageFix"/>
<feColorMatrix in="SourceAlpha" type="matrix" values="0 0 0 0 0 0 0 0 0 0 0 0 0 0 0 0 0 0 127 0"/>
<feOffset dy="4"/>
<feGaussianBlur stdDeviation="2"/>
<feColorMatrix type="matrix" values="0 0 0 0 0 0 0 0 0 0 0 0 0 0 0 0 0 0 0.25 0"/>
<feBlend mode="normal" in2="BackgroundImageFix" result="effect1_dropShadow"/>
<feBlend mode="normal" in="SourceGraphic" in2="effect1_dropShadow" result="shape"/>
</filter>
<linearGradient id="paint0_linear" x1="1111" y1="306" x2="474.784" y2="-301.252" gradientUnits="userSpaceOnUse">
<stop stop-color="#1AC0C6"/>
<stop offset="0.995165" stop-color="#134E6F"/>
</linearGradient>
<clipPath id="clip0">
<rect width="1215" height="275" fill="white"/>
</clipPath>
</defs>
</svg>
