<svg width="2074" height="794" viewBox="0 0 2074 794" fill="none" xmlns="http://www.w3.org/2000/svg">
<path d="M1042.18 300.848C1040.06 301.424 1036.7 302 1032.1 302.576C1027.68 303.152 1023.26 303.44 1018.85 303.44C1014.43 303.44 1010.5 303.056 1007.04 302.288C1003.78 301.712 1000.99 300.56 998.687 298.832C996.383 297.104 994.655 294.704 993.503 291.632C992.351 288.56 991.775 284.528 991.775 279.536V234.608H936.479V300.848C934.367 301.424 931.007 302 926.399 302.576C921.983 303.152 917.567 303.44 913.151 303.44C908.735 303.44 904.799 303.056 901.343 302.288C898.079 301.712 895.295 300.56 892.991 298.832C890.687 297.104 888.959 294.704 887.807 291.632C886.655 288.56 886.079 284.528 886.079 279.536V127.472C888.191 127.088 891.551 126.608 896.159 126.032C900.767 125.264 905.183 124.88 909.407 124.88C913.823 124.88 917.663 125.264 920.927 126.032C924.383 126.608 927.263 127.76 929.567 129.488C931.871 131.216 933.599 133.616 934.751 136.688C935.903 139.76 936.479 143.792 936.479 148.784V194.864H991.775V127.472C993.887 127.088 997.247 126.608 1001.86 126.032C1006.46 125.264 1010.88 124.88 1015.1 124.88C1019.52 124.88 1023.36 125.264 1026.62 126.032C1030.08 126.608 1032.96 127.76 1035.26 129.488C1037.57 131.216 1039.3 133.616 1040.45 136.688C1041.6 139.76 1042.18 143.792 1042.18 148.784V300.848ZM1135.74 270.896C1139 270.896 1142.56 270.608 1146.4 270.032C1150.43 269.264 1153.4 268.304 1155.32 267.152V244.112L1134.59 245.84C1129.21 246.224 1124.8 247.376 1121.34 249.296C1117.88 251.216 1116.16 254.096 1116.16 257.936C1116.16 261.776 1117.6 264.944 1120.48 267.44C1123.55 269.744 1128.64 270.896 1135.74 270.896ZM1133.44 157.712C1143.8 157.712 1153.21 158.768 1161.66 160.88C1170.3 162.992 1177.6 166.256 1183.55 170.672C1189.69 174.896 1194.4 180.368 1197.66 187.088C1200.92 193.616 1202.56 201.392 1202.56 210.416V274.928C1202.56 279.92 1201.12 284.048 1198.24 287.312C1195.55 290.384 1192.28 293.072 1188.44 295.376C1175.96 302.864 1158.4 306.608 1135.74 306.608C1125.56 306.608 1116.35 305.648 1108.09 303.728C1100.03 301.808 1093.02 298.928 1087.07 295.088C1081.31 291.248 1076.8 286.352 1073.53 280.4C1070.46 274.448 1068.92 267.536 1068.92 259.664C1068.92 246.416 1072.86 236.24 1080.73 229.136C1088.6 222.032 1100.8 217.616 1117.31 215.888L1155.04 211.856V209.84C1155.04 204.272 1152.54 200.336 1147.55 198.032C1142.75 195.536 1135.74 194.288 1126.52 194.288C1119.23 194.288 1112.12 195.056 1105.21 196.592C1098.3 198.128 1092.06 200.048 1086.49 202.352C1084 200.624 1081.88 198.032 1080.16 194.576C1078.43 190.928 1077.56 187.184 1077.56 183.344C1077.56 178.352 1078.72 174.416 1081.02 171.536C1083.52 168.464 1087.26 165.872 1092.25 163.76C1097.82 161.648 1104.35 160.112 1111.84 159.152C1119.52 158.192 1126.72 157.712 1133.44 157.712ZM1321.2 213.296C1321.2 207.344 1319.47 203.024 1316.01 200.336C1312.75 197.456 1308.24 196.016 1302.48 196.016C1298.64 196.016 1294.8 196.496 1290.96 197.456C1287.31 198.416 1284.14 199.856 1281.45 201.776V301.712C1279.53 302.288 1276.46 302.864 1272.24 303.44C1268.2 304.016 1263.98 304.304 1259.56 304.304C1255.34 304.304 1251.5 304.016 1248.04 303.44C1244.78 302.864 1242 301.712 1239.69 299.984C1237.39 298.256 1235.56 295.952 1234.22 293.072C1233.07 290 1232.49 286.064 1232.49 281.264V194.864C1232.49 189.68 1233.55 185.456 1235.66 182.192C1237.96 178.928 1241.04 175.952 1244.88 173.264C1251.4 168.656 1259.56 164.912 1269.36 162.032C1279.34 159.152 1290.38 157.712 1302.48 157.712C1324.17 157.712 1340.88 162.512 1352.59 172.112C1364.3 181.52 1370.16 194.672 1370.16 211.568V301.712C1368.24 302.288 1365.16 302.864 1360.94 303.44C1356.91 304.016 1352.68 304.304 1348.27 304.304C1344.04 304.304 1340.2 304.016 1336.75 303.44C1333.48 302.864 1330.7 301.712 1328.4 299.984C1326.09 298.256 1324.27 295.952 1322.92 293.072C1321.77 290 1321.2 286.064 1321.2 281.264V213.296ZM1394.35 232.016C1394.35 219.344 1396.27 208.4 1400.11 199.184C1403.95 189.776 1409.23 182 1415.95 175.856C1422.86 169.712 1430.83 165.2 1439.85 162.32C1449.07 159.248 1458.96 157.712 1469.52 157.712C1473.36 157.712 1477.1 158.096 1480.75 158.864C1484.4 159.44 1487.37 160.208 1489.68 161.168V114.512C1491.6 113.936 1494.67 113.36 1498.89 112.784C1503.12 112.016 1507.44 111.632 1511.85 111.632C1516.08 111.632 1519.82 111.92 1523.09 112.496C1526.54 113.072 1529.42 114.224 1531.73 115.952C1534.03 117.68 1535.76 120.08 1536.91 123.152C1538.06 126.032 1538.64 129.872 1538.64 134.672V271.184C1538.64 280.208 1534.41 287.408 1525.97 292.784C1520.4 296.432 1513.2 299.6 1504.37 302.288C1495.53 305.168 1485.36 306.608 1473.84 306.608C1461.36 306.608 1450.13 304.88 1440.14 301.424C1430.35 297.968 1422 292.976 1415.09 286.448C1408.37 279.92 1403.18 272.144 1399.53 263.12C1396.08 253.904 1394.35 243.536 1394.35 232.016ZM1476.14 196.016C1465.77 196.016 1457.81 198.992 1452.24 204.944C1446.67 210.896 1443.89 219.92 1443.89 232.016C1443.89 243.92 1446.48 252.944 1451.66 259.088C1456.85 265.04 1464.33 268.016 1474.13 268.016C1477.58 268.016 1480.65 267.536 1483.34 266.576C1486.22 265.424 1488.43 264.176 1489.97 262.832V199.472C1486.13 197.168 1481.52 196.016 1476.14 196.016ZM1687.23 260.24C1687.23 274.832 1681.76 286.256 1670.81 294.512C1659.87 302.768 1643.74 306.896 1622.43 306.896C1614.36 306.896 1606.88 306.32 1599.96 305.168C1593.05 304.016 1587.1 302.288 1582.11 299.984C1577.31 297.488 1573.47 294.416 1570.59 290.768C1567.9 287.12 1566.56 282.8 1566.56 277.808C1566.56 273.2 1567.52 269.36 1569.44 266.288C1571.36 263.024 1573.66 260.336 1576.35 258.224C1581.92 261.296 1588.25 264.08 1595.36 266.576C1602.65 268.88 1611 270.032 1620.41 270.032C1626.36 270.032 1630.88 269.168 1633.95 267.44C1637.21 265.712 1638.84 263.408 1638.84 260.528C1638.84 257.84 1637.69 255.728 1635.39 254.192C1633.08 252.656 1629.24 251.408 1623.87 250.448L1615.23 248.72C1598.52 245.456 1586.04 240.368 1577.79 233.456C1569.72 226.352 1565.69 216.272 1565.69 203.216C1565.69 196.112 1567.23 189.68 1570.3 183.92C1573.37 178.16 1577.69 173.36 1583.26 169.52C1588.83 165.68 1595.45 162.704 1603.13 160.592C1611 158.48 1619.64 157.424 1629.05 157.424C1636.16 157.424 1642.78 158 1648.92 159.152C1655.26 160.112 1660.73 161.648 1665.34 163.76C1669.95 165.872 1673.6 168.656 1676.28 172.112C1678.97 175.376 1680.32 179.312 1680.32 183.92C1680.32 188.336 1679.45 192.176 1677.72 195.44C1676.19 198.512 1674.17 201.104 1671.68 203.216C1670.14 202.256 1667.84 201.296 1664.76 200.336C1661.69 199.184 1658.33 198.224 1654.68 197.456C1651.04 196.496 1647.29 195.728 1643.45 195.152C1639.8 194.576 1636.44 194.288 1633.37 194.288C1627.04 194.288 1622.14 195.056 1618.68 196.592C1615.23 197.936 1613.5 200.144 1613.5 203.216C1613.5 205.328 1614.46 207.056 1616.38 208.4C1618.3 209.744 1621.95 210.992 1627.32 212.144L1636.25 214.16C1654.68 218.384 1667.74 224.24 1675.42 231.728C1683.29 239.024 1687.23 248.528 1687.23 260.24ZM692.145 586.191C690.647 586.061 689.443 585.085 688.531 583.262C687.62 581.439 687.164 579.421 687.164 577.207C687.164 576.165 687.262 575.156 687.457 574.18C687.587 573.138 687.848 572.227 688.238 571.445C688.629 570.664 689.117 570.046 689.703 569.59C690.289 569.069 690.973 568.809 691.754 568.809C694.163 568.809 696.93 568.743 700.055 568.613C703.18 568.418 706.533 568.223 710.113 568.027C711.936 567.832 712.945 566.758 713.141 564.805C713.727 555.365 714.54 547.227 715.582 540.391C716.624 533.555 717.893 527.793 719.391 523.105C720.888 518.353 722.581 514.512 724.469 511.582C726.422 508.652 728.57 506.406 730.914 504.844C731.63 504.323 732.477 503.802 733.453 503.281C734.43 502.695 735.341 502.402 736.188 502.402C737.815 502.402 739.508 502.826 741.266 503.672C743.089 504.453 744.749 505.495 746.246 506.797C747.809 508.034 749.078 509.466 750.055 511.094C751.031 512.656 751.52 514.219 751.52 515.781C751.52 516.367 751.389 516.855 751.129 517.246C750.868 517.572 750.543 517.897 750.152 518.223C747.613 520.111 745.367 522.227 743.414 524.57C741.461 526.914 739.801 529.779 738.434 533.164C737.066 536.549 735.927 540.618 735.016 545.371C734.104 550.124 733.421 555.853 732.965 562.559C732.965 563.6 733.128 564.382 733.453 564.902C733.844 565.358 734.527 565.586 735.504 565.586C738.043 565.586 740.582 565.391 743.121 565C745.725 564.609 748.199 564.219 750.543 563.828C752.887 563.372 755.1 562.949 757.184 562.559C759.267 562.168 761.122 561.973 762.75 561.973C763.922 561.973 764.768 562.689 765.289 564.121C765.875 565.488 766.168 567.181 766.168 569.199C766.168 570.371 766.07 571.576 765.875 572.812C765.68 574.049 765.354 575.156 764.898 576.133C764.508 577.109 763.987 577.956 763.336 578.672C762.685 579.323 761.871 579.714 760.895 579.844L734.918 582.578C733.551 582.773 732.704 583.327 732.379 584.238C732.118 585.15 731.988 586.419 731.988 588.047C731.988 602.435 732.346 614.805 733.062 625.156C733.779 635.508 734.56 644.199 735.406 651.23C736.318 658.327 737.132 663.893 737.848 667.93C738.564 672.031 738.922 674.993 738.922 676.816C738.922 678.184 738.368 679.421 737.262 680.527C736.22 681.634 734.853 682.578 733.16 683.359C731.533 684.141 729.742 684.727 727.789 685.117C725.836 685.573 724.013 685.801 722.32 685.801C720.693 685.801 719.228 685.508 717.926 684.922C716.689 684.401 715.973 683.49 715.777 682.188C715.126 677.63 714.573 672.617 714.117 667.148C713.661 661.745 713.271 655.723 712.945 649.082C712.685 642.507 712.49 635.312 712.359 627.5C712.229 619.622 712.164 610.996 712.164 601.621C712.164 599.212 712.164 596.868 712.164 594.59C712.164 592.311 712.229 590.033 712.359 587.754C712.359 585.801 711.285 584.824 709.137 584.824L692.145 586.191ZM763.043 607.578C763.043 606.471 763.173 605.234 763.434 603.867C763.694 602.5 763.824 601.003 763.824 599.375C763.824 598.268 763.336 597.422 762.359 596.836C761.448 596.25 760.406 595.599 759.234 594.883C758.062 594.167 756.988 593.255 756.012 592.148C755.1 591.042 754.645 589.447 754.645 587.363C754.645 585.866 755.035 584.368 755.816 582.871C756.663 581.374 757.867 580.007 759.43 578.77C763.271 575.905 767.242 573.333 771.344 571.055C775.51 568.776 779.645 566.855 783.746 565.293C787.913 563.73 792.014 562.526 796.051 561.68C800.087 560.833 803.961 560.41 807.672 560.41C813.922 560.41 819.781 561.582 825.25 563.926C830.784 566.204 835.569 569.362 839.605 573.398C843.707 577.37 846.93 582.057 849.273 587.461C851.682 592.799 852.887 598.529 852.887 604.648C852.887 610.638 851.617 616.335 849.078 621.738C846.604 627.077 843.251 631.764 839.02 635.801C834.788 639.837 829.807 643.027 824.078 645.371C818.414 647.78 812.424 648.984 806.109 648.984C799.924 648.984 794.195 647.943 788.922 645.859C783.648 643.776 779.091 640.911 775.25 637.266C771.409 633.555 768.414 629.193 766.266 624.18C764.117 619.102 763.043 613.568 763.043 607.578ZM808.258 631.406C810.992 631.406 813.824 630.853 816.754 629.746C819.684 628.639 822.353 627.044 824.762 624.961C827.236 622.812 829.254 620.208 830.816 617.148C832.444 614.089 833.258 610.638 833.258 606.797C833.258 602.891 832.542 599.245 831.109 595.859C829.677 592.474 827.691 589.544 825.152 587.07C822.678 584.531 819.716 582.546 816.266 581.113C812.88 579.681 809.202 578.965 805.23 578.965C798.004 578.965 792.47 580.853 788.629 584.629C784.788 588.34 782.867 594.069 782.867 601.816C782.867 606.048 783.486 609.987 784.723 613.633C786.025 617.214 787.815 620.339 790.094 623.008C792.372 625.612 795.042 627.663 798.102 629.16C801.227 630.658 804.612 631.406 808.258 631.406ZM918.609 566.953C916.201 566.953 914.085 567.604 912.262 568.906C910.439 570.143 908.876 571.901 907.574 574.18C906.272 576.393 905.198 579.03 904.352 582.09C903.505 585.085 902.822 588.372 902.301 591.953C901.78 595.534 901.422 599.277 901.227 603.184C901.031 607.09 900.934 611.029 900.934 615C900.934 620.208 901.129 625.352 901.52 630.43C901.975 635.443 902.203 640.098 902.203 644.395C902.203 647.194 901.161 649.375 899.078 650.938C896.995 652.565 894.033 653.379 890.191 653.379C889.475 653.379 888.661 653.314 887.75 653.184C886.839 653.053 885.96 652.793 885.113 652.402C884.332 652.012 883.616 651.458 882.965 650.742C882.379 650.091 882.053 649.18 881.988 648.008C881.402 642.279 880.556 636.419 879.449 630.43C878.342 624.44 876.943 618.483 875.25 612.559C873.622 606.569 871.637 600.645 869.293 594.785C867.014 588.926 864.378 583.197 861.383 577.598C860.862 576.621 860.406 575.71 860.016 574.863C859.69 574.017 859.527 573.203 859.527 572.422C859.527 571.445 859.951 570.404 860.797 569.297C861.708 568.125 862.815 567.051 864.117 566.074C865.484 565.098 866.949 564.316 868.512 563.73C870.139 563.079 871.702 562.754 873.199 562.754C875.673 562.754 877.854 564.479 879.742 567.93C881.63 571.315 883.388 576.751 885.016 584.238C885.341 585.54 885.602 586.452 885.797 586.973C885.992 587.493 886.253 587.754 886.578 587.754C887.294 587.754 887.75 586.647 887.945 584.434C888.727 578.249 890.061 572.943 891.949 568.516C893.837 564.023 896.181 560.345 898.98 557.48C901.845 554.551 905.1 552.402 908.746 551.035C912.457 549.668 916.526 548.984 920.953 548.984C923.492 548.984 926.064 549.212 928.668 549.668C931.272 550.124 933.616 550.807 935.699 551.719C937.783 552.63 939.475 553.737 940.777 555.039C942.079 556.341 942.73 557.806 942.73 559.434C942.73 560.605 942.47 562.005 941.949 563.633C941.493 565.195 940.875 566.725 940.094 568.223C939.312 569.655 938.401 570.892 937.359 571.934C936.383 572.91 935.374 573.398 934.332 573.398C933.16 573.398 932.021 573.073 930.914 572.422C929.807 571.706 928.603 570.957 927.301 570.176C926.064 569.395 924.729 568.678 923.297 568.027C921.93 567.311 920.367 566.953 918.609 566.953ZM1184.83 640H1142.64V552.25H1060.38V640H1018.19V435.25H1060.38V518.219H1142.64V435.25H1184.83V640ZM1310.27 624.531C1300.24 636.719 1286.36 642.812 1268.64 642.812C1252.33 642.812 1239.86 638.125 1231.24 628.75C1222.71 619.375 1218.35 605.641 1218.16 587.547V487.844H1258.8V586.141C1258.8 601.984 1266.02 609.906 1280.46 609.906C1294.24 609.906 1303.71 605.125 1308.86 595.562V487.844H1349.64V640H1311.39L1310.27 624.531ZM1417.71 487.844L1418.97 505.422C1429.85 491.828 1444.43 485.031 1462.71 485.031C1478.83 485.031 1490.83 489.766 1498.71 499.234C1506.58 508.703 1510.61 522.859 1510.8 541.703V640H1470.16V542.688C1470.16 534.062 1468.29 527.828 1464.54 523.984C1460.79 520.047 1454.55 518.078 1445.83 518.078C1434.39 518.078 1425.82 522.953 1420.1 532.703V640H1379.46V487.844H1417.71ZM1535.83 562.797C1535.83 539.453 1541.36 520.656 1552.43 506.406C1563.58 492.156 1578.58 485.031 1597.43 485.031C1614.11 485.031 1627.1 490.75 1636.38 502.188L1638.07 487.844H1674.91V634.938C1674.91 648.25 1671.86 659.828 1665.77 669.672C1659.77 679.516 1651.29 687.016 1640.32 692.172C1629.35 697.328 1616.5 699.906 1601.79 699.906C1590.63 699.906 1579.75 697.656 1569.16 693.156C1558.57 688.75 1550.55 683.031 1545.11 676L1563.11 651.25C1573.24 662.594 1585.52 668.266 1599.96 668.266C1610.74 668.266 1619.13 665.359 1625.13 659.547C1631.13 653.828 1634.13 645.672 1634.13 635.078V626.922C1624.75 637.516 1612.43 642.812 1597.14 642.812C1578.86 642.812 1564.05 635.688 1552.71 621.438C1541.46 607.094 1535.83 588.109 1535.83 564.484V562.797ZM1576.47 565.75C1576.47 579.531 1579.24 590.359 1584.77 598.234C1590.3 606.016 1597.89 609.906 1607.55 609.906C1619.93 609.906 1628.79 605.266 1634.13 595.984V532C1628.69 522.719 1619.93 518.078 1607.83 518.078C1598.08 518.078 1590.39 522.062 1584.77 530.031C1579.24 538 1576.47 549.906 1576.47 565.75ZM1776.3 642.812C1753.99 642.812 1735.8 635.969 1721.74 622.281C1707.77 608.594 1700.79 590.359 1700.79 567.578V563.641C1700.79 548.359 1703.74 534.719 1709.64 522.719C1715.55 510.625 1723.89 501.344 1734.68 494.875C1745.55 488.312 1757.93 485.031 1771.8 485.031C1792.61 485.031 1808.97 491.594 1820.88 504.719C1832.88 517.844 1838.88 536.453 1838.88 560.547V577.141H1741.99C1743.3 587.078 1747.24 595.047 1753.8 601.047C1760.46 607.047 1768.85 610.047 1778.97 610.047C1794.63 610.047 1806.86 604.375 1815.68 593.031L1835.64 615.391C1829.55 624.016 1821.3 630.766 1810.89 635.641C1800.49 640.422 1788.96 642.812 1776.3 642.812ZM1771.66 517.938C1763.6 517.938 1757.04 520.656 1751.97 526.094C1747 531.531 1743.82 539.312 1742.41 549.438H1798.94V546.203C1798.75 537.203 1796.32 530.266 1791.63 525.391C1786.94 520.422 1780.29 517.938 1771.66 517.938ZM1947.58 525.953C1942.05 525.203 1937.18 524.828 1932.96 524.828C1917.58 524.828 1907.5 530.031 1902.72 540.438V640H1862.08V487.844H1900.47L1901.6 505.984C1909.75 492.016 1921.05 485.031 1935.49 485.031C1939.99 485.031 1944.21 485.641 1948.14 486.859L1947.58 525.953Z" fill="url(#paint0_linear)"/>
<path d="M223.934 263.759C203.012 225.062 205.945 187.703 206.955 162C203.317 162 194.524 164.007 182.093 164.58C169.662 165.153 165.39 171.546 160.566 173.466C154.805 175.759 137.018 214.456 127.821 235.381C126.911 238.821 125.335 248.108 126.305 257.74C127.518 269.779 166.63 298.157 174.513 306.756C180.82 313.635 191.088 312.298 195.434 310.769C211.604 303.316 232.725 280.019 223.934 263.759Z" fill="#1AC0C6"/>
<path d="M697.086 263.759C718.218 225.062 715.256 187.703 714.235 162C717.91 162 726.791 164.007 739.346 164.58C751.901 165.153 756.216 171.546 761.088 173.466C766.907 175.759 784.872 214.456 794.161 235.381C795.08 238.821 796.672 248.108 795.692 257.74C794.467 269.779 754.964 298.157 747.002 306.756C740.632 313.635 730.261 312.298 725.872 310.769C709.54 303.316 688.207 280.019 697.086 263.759Z" fill="#1AC0C6"/>
<path d="M141.707 311.688C138.34 297.201 141.707 289.437 143.849 285.839C153.337 293.508 172.802 309.416 174.76 311.688C177.209 314.529 187.921 314.245 192.205 314.813C196.49 315.381 211.487 303.735 216.384 302.882C221.281 302.03 284.866 263.758 311.873 273.624C340.429 284.057 341.846 293.93 343.662 306.576L343.702 306.859C346.314 325.039 209.957 387.532 205.978 388.953C202.795 390.089 204.652 391.699 205.978 392.362C301.467 355.718 340.813 320.826 345.845 311.688C352.884 298.906 389.304 299.758 405.831 307.143C420.723 313.798 419.399 332.709 417.461 339.242C426.337 356.854 285.246 444.345 281.573 447.469C278.635 449.969 281.777 450.783 283.716 450.878C369.411 402.304 420.828 351.964 420.828 344.071C420.828 339.242 462.757 353.729 456.33 381.567C455.366 385.741 383.489 479 331.154 479C300.214 479 308.506 477.864 300.549 476.443C292.66 475.035 277.594 457.98 273.616 454.855C269.637 451.73 218.832 462.24 203.529 452.298C185.8 440.78 188.227 405.66 178.739 404.576C158.846 402.304 120.723 396.907 118.753 378.158C112.631 319.926 145.991 326.744 141.707 311.688Z" fill="#1AC0C6"/>
<path d="M778.293 311.688C781.66 297.201 778.293 289.437 776.151 285.839C766.663 293.508 747.198 309.416 745.24 311.688C742.791 314.529 732.079 314.245 727.795 314.813C723.51 315.381 708.513 303.735 703.616 302.882C698.719 302.03 635.134 263.758 608.127 273.624C579.571 284.057 578.154 293.93 576.338 306.576L576.298 306.859C573.686 325.039 710.043 387.532 714.022 388.953C717.205 390.089 715.348 391.699 714.022 392.362C618.533 355.718 579.187 320.826 574.155 311.688C567.116 298.906 530.696 299.758 514.169 307.143C499.277 313.798 500.601 332.709 502.539 339.242C493.663 356.854 634.754 444.345 638.427 447.469C641.365 449.969 638.223 450.783 636.284 450.878C550.589 402.304 499.172 351.964 499.172 344.071C499.172 339.242 457.243 353.729 463.67 381.567C464.634 385.741 536.511 479 588.846 479C619.786 479 611.494 477.864 619.451 476.443C627.34 475.035 642.406 457.98 646.384 454.855C650.363 451.73 701.168 462.24 716.471 452.298C734.2 440.78 731.773 405.66 741.261 404.576C761.154 402.304 799.277 396.907 801.247 378.158C807.369 319.926 774.009 326.744 778.293 311.688Z" fill="#1AC0C6"/>
<path d="M421.323 427.695C410.354 440.365 384.454 463.047 368 474.077C372.266 481.147 379.172 481.713 383.54 481.996C407.002 482.278 423.761 468.986 428.636 466.158C433.511 463.33 449.051 443.815 442.348 433.917C436.985 425.998 426.097 426.469 421.323 427.695Z" fill="#1AC0C6"/>
<path d="M499.677 427.695C510.646 440.365 536.546 463.047 553 474.077C548.734 481.147 541.828 481.713 537.46 481.996C513.998 482.278 497.239 468.986 492.364 466.158C487.489 463.33 471.949 443.815 478.652 433.917C484.015 425.998 494.903 426.469 499.677 427.695Z" fill="#1AC0C6"/>
<path d="M489.059 469H432.858L424 473.318L497 474L489.059 469Z" fill="#FFA822"/>
<g filter="url(#filter0_d)">
<path d="M215.212 169.164L215.169 168.649L215.039 168.15C215.039 168.147 215.038 168.143 215.037 168.14C214.992 167.973 214.752 167.078 216.742 165.035C218.832 162.89 222.602 160.385 228.365 157.723C239.796 152.443 257.302 147.332 279.517 142.881C323.825 134.003 385.569 128 451.707 128C517.968 128 582.416 132.197 630.161 140.527C654.089 144.701 673.459 149.854 686.699 155.851C693.33 158.855 698.077 161.918 701.088 164.899C703.336 167.126 704.428 169.104 704.822 170.866C703.511 172.615 701.841 174.376 699.773 176.136C693.091 181.823 682.709 187.116 668.586 191.793C654.538 196.446 637.164 200.368 616.822 203.523C576.139 209.833 524.062 213 463.938 213C405.948 213 350.835 210.644 306.991 204.945C285.061 202.094 266.113 198.426 251.104 193.862C235.909 189.242 225.516 183.923 219.93 178.246C216.842 175.107 215.454 172.101 215.212 169.164Z" stroke="#FFA822" stroke-width="12"/>
</g>
<path d="M216.803 238.436L211 171L216.803 183.133V238.436Z" fill="#FFA822"/>
<path d="M704.28 239L711 172.975L704.28 179.747V239Z" fill="#FFA822"/>
<defs>
<filter id="filter0_d" x="205" y="122" width="510" height="105" filterUnits="userSpaceOnUse" color-interpolation-filters="sRGB">
<feFlood flood-opacity="0" result="BackgroundImageFix"/>
<feColorMatrix in="SourceAlpha" type="matrix" values="0 0 0 0 0 0 0 0 0 0 0 0 0 0 0 0 0 0 127 0"/>
<feOffset dy="4"/>
<feGaussianBlur stdDeviation="2"/>
<feColorMatrix type="matrix" values="0 0 0 0 0 0 0 0 0 0 0 0 0 0 0 0 0 0 0.25 0"/>
<feBlend mode="normal" in2="BackgroundImageFix" result="effect1_dropShadow"/>
<feBlend mode="normal" in="SourceGraphic" in2="effect1_dropShadow" result="shape"/>
</filter>
<linearGradient id="paint0_linear" x1="905" y1="196" x2="1625.5" y2="692" gradientUnits="userSpaceOnUse">
<stop stop-color="#1AC0C6"/>
<stop offset="1" stop-color="#134E6F"/>
</linearGradient>
</defs>
</svg>
