<svg width="884" height="786" viewBox="0 0 884 786" fill="none" xmlns="http://www.w3.org/2000/svg">
<g clip-path="url(#clip0)">
<path d="M428.11 785.3C664.549 785.3 856.22 730.535 856.22 662.98C856.22 595.425 664.549 540.66 428.11 540.66C191.671 540.66 0 595.425 0 662.98C0 730.535 191.671 785.3 428.11 785.3Z" fill="#F5F5F5"/>
<g filter="url(#filter0_i)">
<path d="M218.323 125.248C216.944 125.624 214.751 126 211.743 126.376C208.86 126.752 205.978 126.94 203.095 126.94C200.212 126.94 197.643 126.689 195.387 126.188C193.256 125.812 191.439 125.06 189.935 123.932C188.431 122.804 187.303 121.237 186.551 119.232C185.799 117.227 185.423 114.595 185.423 111.336V82.008H149.327V125.248C147.948 125.624 145.755 126 142.747 126.376C139.864 126.752 136.982 126.94 134.099 126.94C131.216 126.94 128.647 126.689 126.391 126.188C124.26 125.812 122.443 125.06 120.939 123.932C119.435 122.804 118.307 121.237 117.555 119.232C116.803 117.227 116.427 114.595 116.427 111.336V12.072C117.806 11.8213 119.999 11.508 123.007 11.132C126.015 10.6307 128.898 10.38 131.655 10.38C134.538 10.38 137.044 10.6307 139.175 11.132C141.431 11.508 143.311 12.26 144.815 13.388C146.319 14.516 147.447 16.0827 148.199 18.088C148.951 20.0933 149.327 22.7253 149.327 25.984V56.064H185.423V12.072C186.802 11.8213 188.995 11.508 192.003 11.132C195.011 10.6307 197.894 10.38 200.651 10.38C203.534 10.38 206.04 10.6307 208.171 11.132C210.427 11.508 212.307 12.26 213.811 13.388C215.315 14.516 216.443 16.0827 217.195 18.088C217.947 20.0933 218.323 22.7253 218.323 25.984V125.248ZM279.4 105.696C281.53 105.696 283.849 105.508 286.356 105.132C288.988 104.631 290.93 104.004 292.184 103.252V88.212L278.648 89.34C275.138 89.5907 272.256 90.3427 270 91.596C267.744 92.8493 266.616 94.7293 266.616 97.236C266.616 99.7427 267.556 101.811 269.436 103.44C271.441 104.944 274.762 105.696 279.4 105.696ZM277.896 31.812C284.664 31.812 290.805 32.5013 296.32 33.88C301.96 35.2587 306.722 37.3893 310.608 40.272C314.618 43.0293 317.689 46.6013 319.82 50.988C321.95 55.2493 323.016 60.3253 323.016 66.216V108.328C323.016 111.587 322.076 114.281 320.196 116.412C318.441 118.417 316.31 120.172 313.804 121.676C305.657 126.564 294.189 129.008 279.4 129.008C272.757 129.008 266.741 128.381 261.352 127.128C256.088 125.875 251.513 123.995 247.628 121.488C243.868 118.981 240.922 115.785 238.792 111.9C236.786 108.015 235.784 103.503 235.784 98.364C235.784 89.716 238.353 83.0733 243.492 78.436C248.63 73.7987 256.589 70.916 267.368 69.788L291.996 67.156V65.84C291.996 62.2053 290.366 59.636 287.108 58.132C283.974 56.5027 279.4 55.688 273.384 55.688C268.621 55.688 263.984 56.1893 259.472 57.192C254.96 58.1947 250.886 59.448 247.252 60.952C245.622 59.824 244.244 58.132 243.116 55.876C241.988 53.4947 241.424 51.0507 241.424 48.544C241.424 45.2853 242.176 42.716 243.68 40.836C245.309 38.8307 247.753 37.1387 251.012 35.76C254.646 34.3813 258.908 33.3787 263.796 32.752C268.809 32.1253 273.509 31.812 277.896 31.812ZM400.461 68.096C400.461 64.2107 399.333 61.3907 397.077 59.636C394.947 57.756 392.001 56.816 388.241 56.816C385.735 56.816 383.228 57.1293 380.721 57.756C378.34 58.3827 376.272 59.3227 374.517 60.576V125.812C373.264 126.188 371.259 126.564 368.501 126.94C365.869 127.316 363.112 127.504 360.229 127.504C357.472 127.504 354.965 127.316 352.709 126.94C350.579 126.564 348.761 125.812 347.257 124.684C345.753 123.556 344.563 122.052 343.685 120.172C342.933 118.167 342.557 115.597 342.557 112.464V56.064C342.557 52.68 343.247 49.9227 344.625 47.792C346.129 45.6613 348.135 43.7187 350.641 41.964C354.903 38.956 360.229 36.512 366.621 34.632C373.139 32.752 380.345 31.812 388.241 31.812C402.404 31.812 413.308 34.9453 420.953 41.212C428.599 47.3533 432.421 55.9387 432.421 66.968V125.812C431.168 126.188 429.163 126.564 426.405 126.94C423.773 127.316 421.016 127.504 418.133 127.504C415.376 127.504 412.869 127.316 410.613 126.94C408.483 126.564 406.665 125.812 405.161 124.684C403.657 123.556 402.467 122.052 401.589 120.172C400.837 118.167 400.461 115.597 400.461 112.464V68.096ZM448.215 80.316C448.215 72.044 449.468 64.9 451.975 58.884C454.481 52.7427 457.928 47.6667 462.315 43.656C466.827 39.6453 472.028 36.7 477.919 34.82C483.935 32.8147 490.389 31.812 497.283 31.812C499.789 31.812 502.233 32.0627 504.615 32.564C506.996 32.94 508.939 33.4413 510.443 34.068V3.612C511.696 3.23599 513.701 2.85999 516.459 2.484C519.216 1.98266 522.036 1.732 524.919 1.732C527.676 1.732 530.12 1.92 532.251 2.29599C534.507 2.67199 536.387 3.42399 537.891 4.55199C539.395 5.68 540.523 7.24666 541.275 9.25199C542.027 11.132 542.403 13.6387 542.403 16.772V105.884C542.403 111.775 539.645 116.475 534.131 119.984C530.496 122.365 525.796 124.433 520.031 126.188C514.265 128.068 507.623 129.008 500.103 129.008C491.956 129.008 484.624 127.88 478.107 125.624C471.715 123.368 466.263 120.109 461.751 115.848C457.364 111.587 453.98 106.511 451.599 100.62C449.343 94.604 448.215 87.836 448.215 80.316ZM501.607 56.816C494.839 56.816 489.637 58.7587 486.003 62.644C482.368 66.5293 480.551 72.42 480.551 80.316C480.551 88.0867 482.243 93.9773 485.627 97.988C489.011 101.873 493.899 103.816 500.291 103.816C502.547 103.816 504.552 103.503 506.307 102.876C508.187 102.124 509.628 101.309 510.631 100.432V59.072C508.124 57.568 505.116 56.816 501.607 56.816ZM639.399 98.74C639.399 108.265 635.827 115.723 628.683 121.112C621.539 126.501 611.011 129.196 597.099 129.196C591.835 129.196 586.947 128.82 582.435 128.068C577.923 127.316 574.038 126.188 570.779 124.684C567.646 123.055 565.139 121.049 563.259 118.668C561.504 116.287 560.627 113.467 560.627 110.208C560.627 107.2 561.254 104.693 562.507 102.688C563.76 100.557 565.264 98.8027 567.019 97.424C570.654 99.4293 574.79 101.247 579.427 102.876C584.19 104.38 589.642 105.132 595.783 105.132C599.668 105.132 602.614 104.568 604.619 103.44C606.75 102.312 607.815 100.808 607.815 98.928C607.815 97.1733 607.063 95.7947 605.559 94.792C604.055 93.7893 601.548 92.9747 598.039 92.348L592.399 91.22C581.495 89.0893 573.348 85.768 567.959 81.256C562.695 76.6187 560.063 70.0387 560.063 61.516C560.063 56.8787 561.066 52.68 563.071 48.92C565.076 45.16 567.896 42.0267 571.531 39.52C575.166 37.0133 579.49 35.0707 584.503 33.692C589.642 32.3133 595.282 31.624 601.423 31.624C606.06 31.624 610.384 32 614.395 32.752C618.531 33.3787 622.103 34.3813 625.111 35.76C628.119 37.1387 630.5 38.956 632.255 41.212C634.01 43.3427 634.887 45.912 634.887 48.92C634.887 51.8027 634.323 54.3093 633.195 56.44C632.192 58.4453 630.876 60.1373 629.247 61.516C628.244 60.8893 626.74 60.2627 624.735 59.636C622.73 58.884 620.536 58.2573 618.155 57.756C615.774 57.1293 613.33 56.628 610.823 56.252C608.442 55.876 606.248 55.688 604.243 55.688C600.107 55.688 596.911 56.1893 594.655 57.192C592.399 58.0693 591.271 59.5107 591.271 61.516C591.271 62.8947 591.898 64.0227 593.151 64.9C594.404 65.7773 596.786 66.592 600.295 67.344L606.123 68.66C618.155 71.4173 626.678 75.24 631.691 80.128C636.83 84.8907 639.399 91.0947 639.399 98.74ZM9.50977 481.096C8.76107 481.031 8.15885 480.542 7.70312 479.631C7.2474 478.719 7.01953 477.71 7.01953 476.604C7.01953 476.083 7.06836 475.578 7.16602 475.09C7.23112 474.569 7.36133 474.113 7.55664 473.723C7.75195 473.332 7.99609 473.023 8.28906 472.795C8.58203 472.535 8.92383 472.404 9.31445 472.404C10.5189 472.404 11.9023 472.372 13.4648 472.307C15.0273 472.209 16.7038 472.111 18.4941 472.014C19.4056 471.916 19.9102 471.379 20.0078 470.402C20.3008 465.682 20.7077 461.613 21.2285 458.195C21.7493 454.777 22.3841 451.896 23.1328 449.553C23.8815 447.176 24.7279 445.256 25.6719 443.791C26.6484 442.326 27.7227 441.203 28.8945 440.422C29.2526 440.161 29.6758 439.901 30.1641 439.641C30.6523 439.348 31.1081 439.201 31.5312 439.201C32.3451 439.201 33.1914 439.413 34.0703 439.836C34.9818 440.227 35.8118 440.747 36.5605 441.398C37.3418 442.017 37.9766 442.733 38.4648 443.547C38.9531 444.328 39.1973 445.109 39.1973 445.891C39.1973 446.184 39.1322 446.428 39.002 446.623C38.8717 446.786 38.709 446.949 38.5137 447.111C37.2441 448.055 36.1211 449.113 35.1445 450.285C34.168 451.457 33.3379 452.889 32.6543 454.582C31.9707 456.275 31.401 458.309 30.9453 460.686C30.4896 463.062 30.1478 465.926 29.9199 469.279C29.9199 469.8 30.0013 470.191 30.1641 470.451C30.3594 470.679 30.7012 470.793 31.1895 470.793C32.459 470.793 33.7285 470.695 34.998 470.5C36.3001 470.305 37.5371 470.109 38.709 469.914C39.8809 469.686 40.9876 469.475 42.0293 469.279C43.071 469.084 43.9987 468.986 44.8125 468.986C45.3984 468.986 45.8216 469.344 46.082 470.061C46.375 470.744 46.5215 471.59 46.5215 472.6C46.5215 473.186 46.4727 473.788 46.375 474.406C46.2773 475.025 46.1146 475.578 45.8867 476.066C45.6914 476.555 45.431 476.978 45.1055 477.336C44.7799 477.661 44.373 477.857 43.8848 477.922L30.8965 479.289C30.2129 479.387 29.7897 479.663 29.627 480.119C29.4967 480.575 29.4316 481.21 29.4316 482.023C29.4316 489.217 29.6107 495.402 29.9688 500.578C30.3268 505.754 30.7174 510.1 31.1406 513.615C31.5964 517.163 32.0033 519.947 32.3613 521.965C32.7194 524.016 32.8984 525.497 32.8984 526.408C32.8984 527.092 32.6217 527.71 32.0684 528.264C31.5475 528.817 30.8639 529.289 30.0176 529.68C29.2038 530.07 28.3086 530.363 27.332 530.559C26.3555 530.786 25.444 530.9 24.5977 530.9C23.7839 530.9 23.0514 530.754 22.4004 530.461C21.7819 530.201 21.4238 529.745 21.3262 529.094C21.0007 526.815 20.724 524.309 20.4961 521.574C20.2682 518.872 20.0729 515.861 19.9102 512.541C19.7799 509.253 19.6823 505.656 19.6172 501.75C19.5521 497.811 19.5195 493.498 19.5195 488.811C19.5195 487.606 19.5195 486.434 19.5195 485.295C19.5195 484.156 19.5521 483.016 19.6172 481.877C19.6172 480.9 19.0801 480.412 18.0059 480.412L9.50977 481.096ZM44.959 491.789C44.959 491.236 45.0241 490.617 45.1543 489.934C45.2845 489.25 45.3496 488.501 45.3496 487.688C45.3496 487.134 45.1055 486.711 44.6172 486.418C44.1615 486.125 43.6406 485.799 43.0547 485.441C42.4688 485.083 41.9316 484.628 41.4434 484.074C40.9876 483.521 40.7598 482.723 40.7598 481.682C40.7598 480.933 40.9551 480.184 41.3457 479.436C41.7689 478.687 42.3711 478.003 43.1523 477.385C45.0729 475.952 47.0586 474.667 49.1094 473.527C51.1927 472.388 53.2598 471.428 55.3105 470.646C57.3939 469.865 59.4447 469.263 61.4629 468.84C63.4811 468.417 65.418 468.205 67.2734 468.205C70.3984 468.205 73.3281 468.791 76.0625 469.963C78.8294 471.102 81.222 472.681 83.2402 474.699C85.291 476.685 86.9023 479.029 88.0742 481.73C89.2786 484.4 89.8809 487.264 89.8809 490.324C89.8809 493.319 89.2461 496.167 87.9766 498.869C86.7396 501.538 85.0632 503.882 82.9473 505.9C80.8314 507.919 78.3411 509.514 75.4766 510.686C72.6445 511.89 69.6497 512.492 66.4922 512.492C63.3997 512.492 60.5352 511.971 57.8984 510.93C55.2617 509.888 52.9831 508.456 51.0625 506.633C49.1419 504.777 47.6445 502.596 46.5703 500.09C45.4961 497.551 44.959 494.784 44.959 491.789ZM67.5664 503.703C68.9336 503.703 70.3496 503.426 71.8145 502.873C73.2793 502.32 74.6139 501.522 75.8184 500.48C77.0553 499.406 78.0645 498.104 78.8457 496.574C79.6595 495.044 80.0664 493.319 80.0664 491.398C80.0664 489.445 79.7083 487.622 78.9922 485.93C78.276 484.237 77.2832 482.772 76.0137 481.535C74.7767 480.266 73.2956 479.273 71.5703 478.557C69.8776 477.84 68.0384 477.482 66.0527 477.482C62.4395 477.482 59.6725 478.426 57.752 480.314C55.8314 482.17 54.8711 485.035 54.8711 488.908C54.8711 491.024 55.1803 492.993 55.7988 494.816C56.4499 496.607 57.3451 498.169 58.4844 499.504C59.6237 500.806 60.9583 501.831 62.4883 502.58C64.0508 503.329 65.7435 503.703 67.5664 503.703ZM122.742 471.477C121.538 471.477 120.48 471.802 119.568 472.453C118.657 473.072 117.876 473.951 117.225 475.09C116.574 476.197 116.036 477.515 115.613 479.045C115.19 480.542 114.848 482.186 114.588 483.977C114.327 485.767 114.148 487.639 114.051 489.592C113.953 491.545 113.904 493.514 113.904 495.5C113.904 498.104 114.002 500.676 114.197 503.215C114.425 505.721 114.539 508.049 114.539 510.197C114.539 511.597 114.018 512.688 112.977 513.469C111.935 514.283 110.454 514.689 108.533 514.689C108.175 514.689 107.768 514.657 107.312 514.592C106.857 514.527 106.417 514.396 105.994 514.201C105.604 514.006 105.245 513.729 104.92 513.371C104.627 513.046 104.464 512.59 104.432 512.004C104.139 509.139 103.715 506.21 103.162 503.215C102.609 500.22 101.909 497.242 101.062 494.279C100.249 491.285 99.2559 488.322 98.084 485.393C96.9447 482.463 95.6263 479.598 94.1289 476.799C93.8685 476.311 93.6406 475.855 93.4453 475.432C93.2826 475.008 93.2012 474.602 93.2012 474.211C93.2012 473.723 93.4128 473.202 93.8359 472.648C94.2917 472.062 94.8451 471.525 95.4961 471.037C96.1797 470.549 96.9121 470.158 97.6934 469.865C98.5072 469.54 99.2884 469.377 100.037 469.377C101.274 469.377 102.365 470.24 103.309 471.965C104.253 473.658 105.132 476.376 105.945 480.119C106.108 480.77 106.238 481.226 106.336 481.486C106.434 481.747 106.564 481.877 106.727 481.877C107.085 481.877 107.312 481.324 107.41 480.217C107.801 477.124 108.468 474.471 109.412 472.258C110.356 470.012 111.528 468.173 112.928 466.74C114.36 465.275 115.988 464.201 117.811 463.518C119.666 462.834 121.701 462.492 123.914 462.492C125.184 462.492 126.469 462.606 127.771 462.834C129.074 463.062 130.245 463.404 131.287 463.859C132.329 464.315 133.175 464.868 133.826 465.52C134.477 466.171 134.803 466.903 134.803 467.717C134.803 468.303 134.673 469.003 134.412 469.816C134.184 470.598 133.875 471.363 133.484 472.111C133.094 472.827 132.638 473.446 132.117 473.967C131.629 474.455 131.124 474.699 130.604 474.699C130.018 474.699 129.448 474.536 128.895 474.211C128.341 473.853 127.739 473.479 127.088 473.088C126.469 472.697 125.802 472.339 125.086 472.014C124.402 471.656 123.621 471.477 122.742 471.477ZM319.824 508H292.285V450.719H238.584V508H211.045V374.344H238.584V428.504H292.285V374.344H319.824V508ZM401.707 497.902C395.159 505.858 386.102 509.836 374.535 509.836C363.887 509.836 355.747 506.776 350.117 500.656C344.548 494.536 341.702 485.571 341.58 473.76V408.676H368.109V472.842C368.109 483.184 372.822 488.355 382.246 488.355C391.242 488.355 397.423 485.234 400.789 478.992V408.676H427.41V508H402.441L401.707 497.902ZM471.84 408.676L472.666 420.15C479.765 411.277 489.281 406.84 501.215 406.84C511.741 406.84 519.574 409.93 524.715 416.111C529.855 422.292 532.487 431.533 532.609 443.834V508H506.08V444.477C506.08 438.846 504.856 434.777 502.408 432.268C499.96 429.697 495.891 428.412 490.199 428.412C482.733 428.412 477.133 431.594 473.4 437.959V508H446.871V408.676H471.84ZM548.949 457.604C548.949 442.365 552.56 430.095 559.781 420.793C567.064 411.491 576.855 406.84 589.156 406.84C600.049 406.84 608.525 410.573 614.584 418.039L615.686 408.676H639.736V504.695C639.736 513.385 637.747 520.943 633.77 527.369C629.853 533.795 624.314 538.691 617.154 542.057C609.994 545.423 601.61 547.105 592.002 547.105C584.719 547.105 577.62 545.637 570.705 542.699C563.79 539.823 558.557 536.09 555.008 531.5L566.758 515.344C573.367 522.749 581.384 526.451 590.809 526.451C597.846 526.451 603.324 524.554 607.24 520.76C611.157 517.027 613.115 511.702 613.115 504.787V499.463C606.995 506.378 598.948 509.836 588.973 509.836C577.039 509.836 567.37 505.185 559.965 495.883C552.621 486.52 548.949 474.127 548.949 458.705V457.604ZM575.479 459.531C575.479 468.527 577.284 475.596 580.895 480.736C584.505 485.816 589.462 488.355 595.766 488.355C603.844 488.355 609.627 485.326 613.115 479.268V437.5C609.566 431.441 603.844 428.412 595.949 428.412C589.585 428.412 584.566 431.013 580.895 436.215C577.284 441.417 575.479 449.189 575.479 459.531ZM705.922 509.836C691.357 509.836 679.484 505.368 670.305 496.434C661.186 487.499 656.627 475.596 656.627 460.725V458.154C656.627 448.179 658.555 439.275 662.41 431.441C666.266 423.547 671.712 417.488 678.75 413.266C685.849 408.982 693.927 406.84 702.984 406.84C716.57 406.84 727.249 411.124 735.021 419.691C742.855 428.259 746.771 440.407 746.771 456.135V466.967H683.523C684.38 473.454 686.951 478.656 691.234 482.572C695.579 486.489 701.057 488.447 707.666 488.447C717.886 488.447 725.872 484.745 731.625 477.34L744.66 491.936C740.682 497.566 735.297 501.972 728.504 505.154C721.711 508.275 714.184 509.836 705.922 509.836ZM702.893 428.32C697.63 428.32 693.346 430.095 690.041 433.645C686.798 437.194 684.717 442.273 683.799 448.883H720.701V446.771C720.579 440.896 718.988 436.368 715.928 433.186C712.868 429.942 708.523 428.32 702.893 428.32ZM817.73 433.553C814.12 433.063 810.938 432.818 808.184 432.818C798.147 432.818 791.568 436.215 788.447 443.008V508H761.918V408.676H786.979L787.713 420.518C793.037 411.399 800.411 406.84 809.836 406.84C812.773 406.84 815.527 407.238 818.098 408.033L817.73 433.553Z" fill="url(#paint0_linear)"/>
</g>
<path d="M660.23 392.82C660.23 392.82 607.23 430.3 621.23 501.82C635.23 573.34 546.79 673.08 546.79 673.08C546.79 673.08 547.55 673.08 548.97 673.08C644.7 672.61 709.09 574.26 670.97 486.45C656.82 453.81 646.95 416.65 660.23 392.82Z" fill="#6C63FF"/>
<path d="M660.23 392.82C660.23 392.82 625.23 443.9 642.96 493.52C660.69 543.14 617.81 666.52 546.82 673.08" stroke="#535461" stroke-miterlimit="10"/>
<path d="M709.43 589.65C709.43 589.65 659.22 572.58 646.58 618.04C633.94 663.5 538.27 653.65 538.27 653.65C538.27 653.65 538.81 654.18 539.84 655.13C609.13 719.77 686.96 713.97 687.38 643.98C687.54 617.97 692.24 592.65 709.43 589.65Z" fill="#6C63FF"/>
<path opacity="0.2" d="M709.43 589.65C709.43 589.65 659.22 572.58 646.58 618.04C633.94 663.5 538.27 653.65 538.27 653.65C538.27 653.65 538.81 654.18 539.84 655.13C609.13 719.77 686.96 713.97 687.38 643.98C687.54 617.97 692.24 592.65 709.43 589.65Z" fill="#F5F5F5"/>
<path d="M709.43 589.65C709.43 589.65 667.85 591.58 664.89 628.57C661.93 665.56 591.67 698.45 538.27 653.65" stroke="#535461" stroke-miterlimit="10"/>
<path d="M49.59 639.75C55.59 637.75 64.59 635.47 71.68 636.28C78.42 633.82 94.28 627.4 105.11 617.89C104.794 608.471 105.031 599.041 105.82 589.65C111.36 526.65 98.9 485.16 98.9 485.16C98.9 485.16 89.12 453.49 90.19 427.21C89.56 428.4 89.19 429.11 89.19 429.11C88.33 406.44 80.61 382.98 74.83 368.37C74.6079 368.305 74.3907 368.225 74.18 368.13L67.59 352.79C67.0751 351.897 66.6657 350.947 66.37 349.96L65.37 347.53L65.68 347.4C65.58 347 65.47 346.58 65.37 346.15C61.24 328.68 58.09 287.25 58.09 287.25C47 243.65 73.3 216.65 73.3 216.65L117.93 178.24C117.708 178.739 117.56 179.268 117.49 179.81L117.86 179.49C118.49 177.69 119.18 175.49 119.86 173.05C118.268 171.924 116.776 170.663 115.4 169.28C110.327 164.487 106.838 158.259 105.4 151.43C104.32 146.12 104.53 140.65 104.75 135.24L105.49 116.72C105.523 113.094 105.891 109.478 106.59 105.92C109.96 91.18 125.02 80.92 140.13 80.27C144.94 80.07 149.74 80.68 154.53 81.04C158.421 81.3591 162.329 81.4426 166.23 81.29C166.674 81.3149 167.115 81.1995 167.49 80.96C167.833 80.6213 168.03 80.162 168.04 79.68C168.117 78.8207 168.018 77.9548 167.75 77.1349C167.481 76.3149 167.049 75.558 166.48 74.91C165.896 74.3961 165.216 74.0019 164.48 73.75L165.56 74.01C165.029 73.5941 164.43 73.2728 163.79 73.06C167.65 73.97 171.6 74.92 174.92 77.06C175.87 77.6846 176.743 78.4198 177.52 79.25C179.576 81.0541 180.911 83.5398 181.28 86.25C183.01 84.56 184.67 82.7 185.28 80.38C185.51 79.4473 185.51 78.4727 185.28 77.54C185.54 77.8667 185.793 78.2 186.04 78.54C186.04 78.44 186.04 78.34 185.97 78.24C188.791 81.748 190.778 85.8514 191.78 90.24C192.174 89.7648 192.47 89.2159 192.65 88.6254C192.83 88.0348 192.892 87.4143 192.83 86.8C193.05 87.48 193.26 88.17 193.45 88.87C193.54 88.4158 193.563 87.951 193.52 87.49C195.252 92.7879 196.034 98.35 195.83 103.92C195.83 109.48 193.37 118.13 187.41 120.08C187.11 120.18 186.79 120.26 186.47 120.33C189.816 125.527 191.82 131.473 192.303 137.635C192.785 143.797 191.731 149.983 189.234 155.637C186.738 161.291 182.877 166.237 177.998 170.032C173.119 173.827 167.375 176.352 161.28 177.38C161.187 178.047 161.093 178.757 161 179.51H160.76C160.6 181.01 160.47 182.59 160.37 184.24C161.869 185.712 163.511 187.032 165.27 188.18C170.234 191.143 175.775 193.009 181.52 193.65C188.411 194.178 195.109 196.169 201.17 199.49C208.29 203.49 216.17 209.28 218.62 216.33C222.74 228.1 245.38 246.33 260.62 248.6L266.02 248.29L266.41 248.17V248.27L267.73 248.19H267.81H268.16V248.27L269.53 248.19C269.53 248.19 269.67 248.82 269.85 249.94C277.5 247.32 293.73 240.02 314.85 220.86C338.39 199.51 370.16 203.71 382.41 206.4C382.827 206.492 383.206 206.709 383.496 207.022C383.786 207.335 383.975 207.729 384.035 208.151C384.096 208.574 384.027 209.005 383.837 209.387C383.646 209.769 383.344 210.084 382.97 210.29C378.03 213.01 370.35 216.96 366.75 217.4C366.75 217.4 374.17 225.08 366.29 229.18C365.346 229.645 364.291 229.837 363.244 229.737C362.197 229.636 361.198 229.246 360.36 228.61C356.57 225.84 346.03 232.12 330.77 235.39C330.77 235.39 287.69 279.97 266.32 286.87C265.819 287.825 265.268 288.753 264.67 289.65L263.35 289.54L263.28 289.65H263.1L262.94 291.05C262.94 291.05 229.69 289.3 218.94 277.23C218.171 276.544 217.465 275.791 216.83 274.98L228.39 420.46H228.28L228.39 421.84H219.89C219.15 439.749 219.912 457.688 222.17 475.47V570.27C222.17 570.27 222.61 578.62 205.28 590.77C187.059 603.417 169.499 616.992 152.67 631.44L150.57 633.26C153.76 662.26 160.43 716.34 165.99 718.36L162.56 718.96C168.47 726.41 185.12 746.85 190.21 747.42C196.44 748.11 200.59 757.8 190.21 759.88C180.63 761.8 155.73 764.3 128.56 753.8C126.596 753.037 124.945 751.636 123.872 749.823C122.799 748.01 122.365 745.889 122.64 743.8L124.64 728.52C124.259 728.733 123.952 729.057 123.76 729.45C122.38 733.6 123.76 723.91 123.76 723.91C118.069 705.613 113.6 686.959 110.38 668.07L89.86 685.85C89.86 685.85 89.44 685.34 88.73 684.42C83.73 695.86 74.73 719.23 76.73 736.37C79.5 759.9 53.2 739.14 55.97 725.3C58.21 714.1 48.22 666.66 44.32 648.96C43.8961 647.044 44.2011 645.04 45.1755 643.337C46.1499 641.634 47.7237 640.355 49.59 639.75Z" fill="url(#paint1_linear)"/>
<path d="M264.46 255.85C264.46 255.85 284.06 252.47 313.11 226.12C336.11 205.27 367.11 209.38 379.11 212C379.535 212.064 379.928 212.262 380.231 212.567C380.534 212.871 380.731 213.265 380.793 213.691C380.855 214.116 380.778 214.55 380.574 214.928C380.37 215.306 380.049 215.608 379.66 215.79C374.83 218.44 367.33 222.3 363.82 222.74C363.82 222.74 371.06 230.24 363.37 234.25C362.448 234.703 361.418 234.89 360.396 234.791C359.373 234.692 358.398 234.311 357.58 233.69C353.88 230.99 343.58 237.12 328.69 240.31C328.69 240.31 270.58 300.45 257.07 290.31L264.46 255.85Z" fill="#FEC3BE"/>
<path d="M164.45 174.09C164.45 174.09 159.04 197.09 164.45 213.28L140.13 216.65L118.51 205.85V191.65C118.51 191.65 128.65 170.03 125.94 145.03L164.45 174.09Z" fill="#FEC3BE"/>
<path d="M95.53 672.09C95.53 672.09 77.96 706.55 80.67 729.52C83.38 752.49 57.67 732.22 60.4 718.71C62.59 707.78 52.83 661.45 49.03 644.17C48.6119 642.302 48.9047 640.345 49.8513 638.681C50.798 637.017 52.3305 635.765 54.15 635.17C62.28 632.5 75.87 629.17 82.71 634.23C92.83 641.65 95.53 672.09 95.53 672.09Z" fill="#8B416F"/>
<path d="M162.43 709.92C162.43 709.92 185.43 739.65 191.49 740.33C197.55 741.01 201.63 750.47 191.49 752.49C182.14 754.36 157.82 756.81 131.29 746.55C129.37 745.804 127.756 744.434 126.708 742.66C125.66 740.887 125.238 738.812 125.51 736.77L129.32 707.89L162.43 709.92Z" fill="#8B416F"/>
<path d="M200.27 394.37L222.27 397.31C222.27 397.31 217.13 434.23 222.53 474.78V567.35C222.53 567.35 222.96 575.5 206.04 587.35C188.293 599.702 171.19 612.956 154.8 627.06L93.48 680.18C93.48 680.18 69.15 650.45 72.53 632.88C72.53 632.88 113.07 620.04 118.48 599.09C121.58 587.09 137.3 577.09 150.17 570.74C166.75 562.55 175.79 543.94 171.25 526.02C170.5 522.98 169.339 520.057 167.8 517.33C156.99 498.41 141.45 455.84 141.45 455.84L171.18 399.08L200.27 394.37Z" fill="#4D4981"/>
<path opacity="0.05" d="M200.27 394.37L222.27 397.31C222.27 397.31 217.13 434.23 222.53 474.78V567.35C222.53 567.35 222.96 575.5 206.04 587.35C188.293 599.702 171.19 612.956 154.8 627.06L93.48 680.18C93.48 680.18 69.15 650.45 72.53 632.88C72.53 632.88 113.07 620.04 118.48 599.09C121.58 587.09 137.3 577.09 150.17 570.74C166.75 562.55 175.79 543.94 171.25 526.02C170.5 522.98 169.339 520.057 167.8 517.33C156.99 498.41 141.45 455.84 141.45 455.84L171.18 399.08L200.27 394.37Z" fill="black"/>
<path d="M167.83 711.95C167.83 711.95 127.96 718.71 126.61 722.76C125.26 726.81 126.61 717.35 126.61 717.35C126.61 717.35 103.61 647.75 109.04 586.26C114.47 524.77 102.28 484.26 102.28 484.26C102.28 484.26 88.09 438.31 96.2 411.96C104.31 385.61 189.45 397.09 189.45 397.09C189.45 397.09 159.72 466.65 160.4 499.78C160.4 499.78 157.02 599.78 150.94 611.27C150.94 611.27 160.4 709.25 167.83 711.95Z" fill="#4D4981"/>
<path d="M163.1 191.65C163.1 191.65 159.05 216.65 118.5 205.84L145.5 411.25C145.5 411.25 223.88 413.95 223.21 404.49L207.02 280.18L163.1 191.65Z" fill="white"/>
<path opacity="0.1" d="M162.09 190.31C162.09 190.31 169.77 198.55 181.61 199.58C188.336 200.099 194.875 202.046 200.79 205.29C207.79 209.18 215.42 214.84 217.79 221.74C222.52 235.25 252.25 257.55 265.79 252.82L261.06 293.36C261.06 293.36 222.55 291.36 215.79 276.47L227.28 421.07H217.16C217.16 421.07 211.75 381.88 207.7 373.77C203.65 365.66 195.54 321.07 194.86 310.25C194.18 299.43 184.05 237.25 175.26 226.46L162.08 194.36L162.09 190.31Z" fill="black"/>
<path opacity="0.1" d="M162.09 192.34C162.09 192.34 171.09 199.91 182.96 200.93C189.687 201.452 196.226 203.402 202.14 206.65C209.14 210.54 216.77 216.2 219.14 223.1C223.87 236.61 253.6 258.91 267.14 254.18L262.41 294.72C262.41 294.72 223.9 292.72 217.14 277.83L228.67 422.41H218.51C218.51 422.41 213.1 383.22 209.05 375.11C205 367 196.89 322.41 196.21 311.59C195.53 300.77 185.4 238.59 176.61 227.8L162.08 196.38L162.09 192.34Z" fill="black"/>
<path d="M162.09 190.99C162.09 190.99 171.09 198.56 182.96 199.58C189.686 200.099 196.225 202.046 202.14 205.29C209.14 209.18 216.77 214.84 219.14 221.74C223.87 235.25 253.6 257.55 267.14 252.82L262.41 293.36C262.41 293.36 223.9 291.36 217.14 276.47L228.67 421.06H218.51C218.51 421.06 213.1 381.87 209.05 373.76C205 365.65 196.89 321.06 196.21 310.24C195.53 299.42 185.4 237.24 176.61 226.45L162.08 195.03L162.09 190.99Z" fill="#FD6F8D"/>
<path opacity="0.1" d="M127.67 164.97C128.55 158.57 126.79 154.57 125.98 147.06L164.49 176.12C164.49 176.12 163.57 180.05 162.87 185.79C160.949 186.1 159.006 186.257 157.06 186.26C143.58 186.26 133.96 175.79 127.67 164.97Z" fill="black"/>
<path d="M157.02 184.23C177.173 184.23 193.51 167.893 193.51 147.74C193.51 127.587 177.173 111.25 157.02 111.25C136.867 111.25 120.53 127.587 120.53 147.74C120.53 167.893 136.867 184.23 157.02 184.23Z" fill="#FEC3BE"/>
<path opacity="0.1" d="M196.84 111.98C197.055 105.82 196.035 99.6795 193.84 93.92C194.432 94.8225 194.68 95.9079 194.539 96.9782C194.398 98.0484 193.876 99.0322 193.07 99.75C191.891 93.4723 188.667 87.7617 183.9 83.51C186.5 83.93 187.83 87.16 187.2 89.72C186.57 92.28 184.59 94.25 182.69 96.07C182.91 92.2 180.36 88.6 177.12 86.47C173.88 84.34 170.02 83.47 166.25 82.53C167.561 82.9954 168.68 83.8815 169.435 85.0501C170.189 86.2186 170.536 87.6039 170.42 88.99C170.411 89.4613 170.217 89.9101 169.88 90.24C169.515 90.4765 169.084 90.592 168.65 90.57C164.842 90.7202 161.028 90.64 157.23 90.33C152.562 89.8043 147.867 89.5539 143.17 89.58C128.41 90.2 113.71 100.23 110.42 114.58C109.739 118.053 109.381 121.581 109.35 125.12L108.67 143.25C108.46 148.53 108.25 153.88 109.31 159.06C110.328 163.883 112.399 168.423 115.374 172.353C118.348 176.284 122.155 179.51 126.52 181.8C131.82 174.12 132.29 164.25 134.13 155.1C134.415 152.98 135.2 150.958 136.42 149.2C137.75 147.54 140.09 146.49 142.07 147.28C144.05 148.07 144.91 151.1 143.26 152.45C144.68 154.18 147.48 152.89 149.11 151.35C153.748 146.953 156.943 141.252 158.27 135C158.93 131.85 159.59 128 162.63 126.91C163.694 126.617 164.806 126.543 165.9 126.69C172.33 127.13 182.39 129.79 188.63 127.75C194.44 125.85 196.84 117.41 196.84 111.98Z" fill="black"/>
<path d="M196.17 111.3C196.385 105.14 195.365 98.9995 193.17 93.24C193.762 94.1425 194.01 95.2279 193.869 96.2982C193.728 97.3684 193.206 98.3522 192.4 99.07C191.221 92.7923 187.997 87.0817 183.23 82.83C185.83 83.25 187.16 86.48 186.53 89.04C185.9 91.6 183.92 93.57 182.02 95.39C182.24 91.52 179.69 87.92 176.45 85.79C173.21 83.66 169.35 82.79 165.58 81.85C166.891 82.3154 168.01 83.2015 168.765 84.3701C169.519 85.5386 169.866 86.924 169.75 88.31C169.741 88.7813 169.547 89.2301 169.21 89.56C168.845 89.7965 168.415 89.912 167.98 89.89C164.172 90.0402 160.358 89.96 156.56 89.65C151.892 89.1244 147.197 88.8739 142.5 88.9C127.74 89.52 113.04 99.55 109.75 113.9C109.063 117.389 108.701 120.934 108.67 124.49L107.95 142.57C107.74 147.85 107.53 153.2 108.59 158.38C109.608 163.203 111.679 167.743 114.654 171.673C117.629 175.604 121.435 178.83 125.8 181.12C131.1 173.44 131.57 163.57 133.41 154.42C133.695 152.3 134.48 150.278 135.7 148.52C137.03 146.86 139.37 145.81 141.35 146.6C143.33 147.39 144.19 150.42 142.54 151.77C143.96 153.5 146.76 152.21 148.39 150.67C153.028 146.273 156.223 140.572 157.55 134.32C158.21 131.17 158.87 127.32 161.91 126.23C162.974 125.937 164.086 125.863 165.18 126.01C171.61 126.45 181.67 129.11 187.91 127.07C193.76 125.18 196.17 116.73 196.17 111.3Z" fill="#FAD375"/>
<path opacity="0.1" d="M268.85 252.81C268.85 252.81 274.26 277.81 264.12 293.35L258.38 292.88L261.51 253.23L268.85 252.81Z" fill="black"/>
<path d="M267.5 252.81C267.5 252.81 272.91 277.81 262.77 293.35L257.03 292.88L260.16 253.23L267.5 252.81Z" fill="#FD6F8D"/>
<path opacity="0.1" d="M122.22 184.57L78.67 222.07C78.67 222.07 52.99 248.42 63.8 290.99C63.8 290.99 68.53 353.15 73.94 355.86C73.94 355.86 92.86 393.7 94.21 429.51C94.21 429.51 119.55 378.51 131.04 409.58C142.53 440.65 169.22 445.05 169.22 445.05L154.32 261.26C154.32 261.26 116.82 196.05 122.22 184.57Z" fill="black"/>
<path d="M120.87 184.57L77.29 222.07C77.29 222.07 51.61 248.42 62.42 290.99C62.42 290.99 67.15 353.15 72.56 355.86C72.56 355.86 91.48 393.7 92.83 429.51C92.83 429.51 119.52 375.79 131.01 406.87C142.5 437.95 167.84 445.05 167.84 445.05L152.97 261.26C152.97 261.26 115.47 196.05 120.87 184.57Z" fill="#FD6F8D"/>
<path d="M100.94 343.02C100.94 343.02 90.13 335.59 72.56 355.86L115.8 434.24L130.33 412.24C130.33 412.24 99.59 351.8 100.94 343.02Z" fill="#FEC3BE"/>
<path opacity="0.1" d="M111.41 347.41C111.41 347.41 87.5 374.27 78.17 369.96L69.53 349.85L101.95 335.92L111.41 347.41Z" fill="black"/>
<path d="M111.41 346.06C111.41 346.06 87.5 372.92 78.17 368.65L69.53 348.54L101.95 334.61L111.41 346.06Z" fill="#FD6F8D"/>
<path opacity="0.1" d="M128.87 407.19C128.87 407.19 117.49 430.52 111.41 431.88L120.19 442.02L133.03 417.65L128.87 407.19Z" fill="black"/>
<path d="M129.55 407.86C129.55 407.86 118.17 431.19 112.09 432.55L120.87 442.65L133.67 418.36L129.55 407.86Z" fill="#4D4981"/>
<path opacity="0.1" d="M108.03 263.65C108.03 263.65 106.68 312.3 112.08 330.54Z" fill="black"/>
<path opacity="0.1" d="M217.5 273.08C217.5 273.08 209.39 270.38 209.39 263.62Z" fill="black"/>
<g opacity="0.5">
<path opacity="0.5" d="M669.32 274.27C669.26 280.66 670.02 286.57 672.08 291.2L674.08 320.2C674.08 320.2 674.58 319.92 675.49 319.48C674.28 330.48 675.15 350.63 696.75 354.42C697.234 354.293 697.686 354.069 698.08 353.76C699.57 350.76 700.905 347.686 702.08 344.55L702.33 344.63L702.08 345.87L703.68 346.37C695.89 363.25 697.68 398.37 699.41 401.81C700.14 403.25 700.69 407.49 701.1 412.3C701.864 421.64 701.528 431.038 700.1 440.3C699.1 446.69 698.8 454.53 702.1 457.79C708.1 463.71 707.43 509.12 707.43 509.12C707.843 510.143 708.307 511.144 708.82 512.12L706.76 512.41C706.76 512.41 706.76 530.18 710.09 542.68C712.01 549.87 709.29 559.24 706.64 565.9C702.973 574.86 702.166 584.734 704.33 594.17C706.28 602.31 710.33 610.43 718.76 613.1C737.43 619.02 741.43 588.1 741.43 588.1C741.43 588.1 740.76 564.41 741.43 561.1C741.64 560.1 742.6 557.26 743.84 553.84C748.346 541.364 750.053 528.049 748.84 514.84L748.07 506.52L744.45 507.04C744.39 506.18 744.34 505.28 744.29 504.34C744.24 503.4 744.2 502.72 744.16 501.87C744.12 501.02 744.08 500.15 744.04 499.25C744 498.35 743.96 497.44 743.93 496.51C743.93 496.043 743.913 495.573 743.88 495.1C743.73 490.84 743.6 486.29 743.49 481.79C743.49 479.79 743.4 477.79 743.37 475.84C743.37 474.38 743.32 472.93 743.3 471.53C743.3 471.063 743.3 470.597 743.3 470.13C743.3 467.83 743.24 465.63 743.23 463.6C743.23 463.193 743.23 462.793 743.23 462.4C743.23 461.613 743.23 460.86 743.23 460.14C743.23 459.78 743.23 459.427 743.23 459.08C743.23 458.39 743.23 457.74 743.23 457.08C743.23 456.42 743.23 455.88 743.23 455.35C743.23 454.82 743.23 454.35 743.23 453.87C743.23 451.4 743.33 450.3 743.43 451.21C743.76 454.21 744.76 472.27 743.43 449.21C742.35 430.62 759.09 386.3 765.58 369.91C767.65 370.981 769.654 372.177 771.58 373.49C773.8 399.35 770.75 448.92 769.77 463.49V463.55C769.69 464.68 769.63 465.55 769.58 466.26V466.38L769.53 467.1V467.3V467.51V467.62C769.53 467.62 760.86 521.62 760.86 534.09C760.86 543.72 756.11 557.65 753.93 563.53C750.76 564.91 748.19 566.33 748.19 566.33L748.86 615.69C748.86 615.69 741.53 640.04 768.19 645.96C794.85 651.88 783.52 621.61 783.52 621.61L781.52 599.89L790.85 566.33L788.23 565.8C793.77 548.1 808.61 499.4 807.52 488.68C806.3 476.68 812.29 463.6 813.36 461.38L813.52 461.04C807.8 449.24 825.19 387.04 833.12 360.2C843.01 355.48 850.18 351.8 850.18 351.8C850.18 351.8 849.98 351.43 849.63 350.8L850.18 350.52C845.92 342.529 842.492 334.121 839.95 325.43L840.52 324.85L840.09 323.64C841.45 322.33 842.19 321.56 842.19 321.56C842.19 321.56 861.52 324.85 856.86 315.64C852.2 306.43 853.53 292.64 853.53 292.64V242.06L862.86 245.13C880.41 248.02 883.55 228.42 883.46 213.39C883.486 207.493 883.065 201.603 882.2 195.77C882.2 195.77 868.87 93.77 845.53 97.06C823.67 100.14 804.45 87.35 802.1 85.71C801.813 84.83 801.557 83.9633 801.33 83.11C802.637 81.6312 803.808 80.0381 804.83 78.35C805.56 78.35 806.3 78.25 807 78.17C807 77.97 807 77.78 807 77.58L807.67 77.51C807.599 75.2259 807.983 72.9506 808.8 70.8165C809.618 68.6825 810.851 66.7324 812.43 65.08C813.719 63.8503 815.198 62.8372 816.81 62.08C820.04 60.57 823.69 60.08 826.86 58.46C827.983 57.8737 828.998 57.0991 829.86 56.17C831.86 54.37 833.16 51.86 832.47 49.36C832.16 48.25 831.47 47.23 831.47 46.08C831.47 44.48 832.72 43.2 833.47 41.79C835.67 37.65 833.67 32.47 830.92 28.65C828.17 24.83 824.64 21.23 823.63 16.65C823.22 14.77 823.25 12.79 822.63 10.96C820.63 5.03 812.97 3.26 806.63 3.59C800.29 3.92 793.49 5.27 788.01 2.15C786.97 1.39564 785.85 0.758448 784.67 0.250001C783.286 -0.0768639 781.844 -0.0768639 780.46 0.250001C772.46 1.64 765.09 5.61 758.46 10.25C755.785 12.0416 753.287 14.0842 751 16.35C749.49 17.7831 748.148 19.3834 747 21.12C744.3 25.29 743 30.61 744.69 35.28C745.645 37.8587 747.322 40.1082 749.52 41.76C746.879 45.2138 744.956 49.1606 743.863 53.3684C742.769 57.5763 742.528 61.9602 743.153 66.2626C743.778 70.565 745.257 74.699 747.503 78.4216C749.748 82.1443 752.716 85.3805 756.23 87.94C755.122 89.7553 753.865 91.4746 752.47 93.08V92.82C752.47 92.82 732.14 103.02 724.8 101.7C717.64 100.41 699.04 112.32 699.42 136.16C699.42 136.76 699.42 137.38 699.42 138L687.42 175.21C682.592 190.155 680.132 205.764 680.13 221.47C680.13 221.47 669.11 251.41 669.32 274.27ZM701.55 290.03L717.41 230.87V243.81L707.41 279.35C707.41 279.35 705.41 291.24 703.88 303.87L701.55 290.03Z" fill="url(#paint2_linear)"/>
</g>
<path d="M748.84 498L749.58 506.13C750.748 519.048 749.093 532.065 744.73 544.28C743.54 547.63 742.61 550.39 742.41 551.38C741.77 554.6 742.41 577.75 742.41 577.75C742.41 577.75 738.55 607.98 720.54 602.19C712.44 599.59 708.54 591.64 706.62 583.69C704.535 574.471 705.313 564.835 708.85 556.07C711.41 549.56 714.03 540.41 712.18 533.38C708.96 521.16 708.96 503.8 708.96 503.8L748.84 498Z" fill="#5A5773"/>
<path d="M768.13 358.45C768.13 358.45 743.05 419.55 744.34 442.05C745.63 464.55 744.66 446.87 744.34 443.98C743.77 438.83 744.34 499.98 746.27 506.98C746.27 506.98 719.9 526.27 709.61 500.55C709.61 500.55 710.25 456.18 704.47 450.39C701.29 447.21 701.6 439.55 702.54 433.3C703.927 424.259 704.263 415.088 703.54 405.97C703.15 401.27 702.61 397.13 701.91 395.72C699.98 391.86 698.05 348.13 709.63 335.91L768.13 358.45Z" fill="#605D82"/>
<path opacity="0.1" d="M743.05 507.01C741.12 499.94 740.55 438.83 741.12 444.01C741.44 446.9 742.41 464.59 741.12 442.08C739.83 419.57 764.91 358.48 764.91 358.48L708.8 336.9C709.06 336.57 709.33 336.26 709.6 335.97L768.12 358.48C768.12 358.48 743.04 419.58 744.33 442.08C745.62 464.58 744.65 446.9 744.33 444.01C743.76 438.86 744.33 500.01 746.26 507.01C746.26 507.01 735.73 514.71 725.38 513.89C734.59 513.19 743.05 507.01 743.05 507.01Z" fill="black"/>
<path d="M789.99 556.53L780.99 589.33L782.92 610.55C782.92 610.55 793.85 640.13 768.13 634.34C742.41 628.55 749.48 604.76 749.48 604.76L748.84 556.53C748.84 556.53 759.13 550.74 763.63 551.39C768.13 552.04 789.99 556.53 789.99 556.53Z" fill="#5A5773"/>
<path d="M834.37 343.02C834.37 343.02 804.79 438.84 811.86 453.65C811.86 453.65 804.79 467.8 806.07 480.65C807.35 493.5 785.49 562.32 785.49 562.32L753.33 556.53C753.33 556.53 761.05 537.24 761.05 525.02C761.05 512.8 769.41 460.02 769.41 460.02C769.41 460.02 776.48 363.55 768.12 353.26L834.37 343.02Z" fill="#605D82"/>
<g opacity="0.1">
<path opacity="0.1" d="M770.62 361.07C775.95 382.91 770.06 463.28 770.06 463.28C770.06 463.28 761.7 516.01 761.7 528.28C761.7 537.61 757.21 551.05 755.08 556.89L753.34 556.58C753.34 556.58 761.06 537.29 761.06 525.07C761.06 512.85 769.42 460.07 769.42 460.07C769.42 460.07 774.8 386.65 770.62 361.07Z" fill="black"/>
<path opacity="0.1" d="M811.86 453.65L811.7 453.98C811.65 453.65 811.6 453.3 811.57 452.98C811.655 453.208 811.752 453.432 811.86 453.65V453.65Z" fill="black"/>
<path opacity="0.1" d="M769.58 356.4C769.288 355.291 768.797 354.244 768.13 353.31L834.37 343.02C834.37 343.02 833.98 344.27 833.31 346.5L769.58 356.4Z" fill="black"/>
</g>
<path d="M680.02 308.29C680.02 308.29 670.37 344.29 699.31 349.45C699.78 349.328 700.219 349.11 700.6 348.81C700.6 348.81 717.32 316.01 704.46 303.15L680.02 308.29Z" fill="#A1616A"/>
<path d="M798.36 69.05C798.36 69.05 796.43 96.05 817.65 108.92C838.87 121.79 772.65 157.15 772.65 157.15L737.9 101.85C737.9 101.85 752.67 103.78 761.67 78.06L798.36 69.05Z" fill="#A1616A"/>
<path opacity="0.1" d="M812.5 110.85C812.5 110.85 779.7 179.02 750.12 114.71L704.46 341.09C704.46 341.09 775.2 362.96 775.84 373.25C776.48 383.54 847.22 346.88 847.22 346.88C847.22 346.88 831.79 318.58 835.64 301.22C839.49 283.86 812.5 110.85 812.5 110.85Z" fill="black"/>
<path d="M812.5 109.57C812.5 109.57 779.7 177.74 750.12 113.43L704.46 339.8C704.46 339.8 775.2 361.65 775.85 371.95C776.5 382.25 847.23 345.58 847.23 345.58C847.23 345.58 831.8 317.28 835.65 299.92C839.5 282.56 812.5 109.57 812.5 109.57Z" fill="#E1E7EF"/>
<path d="M780.35 574.53C780.35 574.53 788.71 555.88 769.42 555.88C750.13 555.88 753.34 572.65 753.34 572.65L780.35 574.53Z" fill="#5A5773"/>
<path d="M736.62 526.3C736.62 526.3 744.34 506.36 725.04 505.72C705.74 505.08 715.39 523.72 715.39 523.72L736.62 526.3Z" fill="#5A5773"/>
<path opacity="0.1" d="M753.02 95.1C753.02 95.1 733.41 105.1 726.33 103.78C719.25 102.46 700.61 114.71 701.89 139.15L690.27 175.65C685.622 190.269 683.26 205.519 683.27 220.86V220.86C683.27 220.86 666.55 267.16 675.55 287.74L677.48 316.04C677.48 316.04 692.24 307.65 707.67 310.22L703.81 287.07L721.17 221.47L750.11 151.37L753.02 95.1Z" fill="black"/>
<path d="M753.02 93.81C753.02 93.81 733.41 103.81 726.33 102.49C719.25 101.17 700.61 113.42 701.89 137.86L690.27 174.33C685.622 188.949 683.26 204.199 683.27 219.54V219.54C683.27 219.54 666.55 265.84 675.55 286.42L677.48 314.72C677.48 314.72 692.27 306.36 707.71 308.93L703.85 285.78L721.21 220.18L750.15 150.08L753.02 93.81Z" fill="#67647E"/>
<path opacity="0.1" d="M720.54 171.95V244.65L710.89 279.38C710.89 279.38 704.46 317.32 706.39 328.9C708.32 340.48 739.19 343.05 747.55 333.4C755.91 323.75 751.41 241.4 751.41 241.4L753.02 120.82L751.73 116.96L720.54 171.95Z" fill="black"/>
<path d="M719.25 168.73V241.4L709.6 276.13C709.6 276.13 703.17 314.07 705.1 325.65C707.03 337.23 737.9 339.8 746.26 330.15C754.62 320.5 750.12 238.15 750.12 238.15L751.73 117.65L719.25 168.73Z" fill="#67647E"/>
<path opacity="0.1" d="M848.84 229.19L828.26 293.19L837.91 320.52C837.91 320.52 792.25 368.75 763.31 345.6C763.31 345.6 760.09 247.2 766.53 224.05C772.97 200.9 803.83 123.05 803.83 123.05L810.26 102.47L844.34 121.76L848.84 229.19Z" fill="black"/>
<path d="M850.45 225.97V288.97C850.45 288.97 849.16 302.48 853.67 311.48C858.18 320.48 839.52 317.27 839.52 317.27C839.52 317.27 793.86 365.5 764.92 342.35C764.92 342.35 761.7 243.95 768.14 220.8C774.58 197.65 805.44 119.8 805.44 119.8L811.87 99.22L845.95 118.51L850.45 225.97Z" fill="#67647E"/>
<path d="M784.887 229.008L809.396 191.268L803.525 187.456L779.016 225.196L784.887 229.008Z" fill="#E6E6E6"/>
<path opacity="0.1" d="M782.127 232.58C786.472 225.82 786.986 218.407 783.274 216.021C779.563 213.635 773.032 217.18 768.687 223.94C764.341 230.699 763.827 238.113 767.539 240.498C771.25 242.884 777.781 239.339 782.127 232.58Z" fill="black"/>
<path d="M785.611 235.917C789.993 229.168 790.542 221.747 786.837 219.34C783.131 216.934 776.575 220.454 772.192 227.203C767.81 233.951 767.261 241.373 770.966 243.779C774.672 246.186 781.228 242.665 785.611 235.917Z" fill="#E6E6E6"/>
<path opacity="0.1" d="M784.353 235.1C787.914 229.616 788.361 223.585 785.35 221.63C782.339 219.675 777.012 222.535 773.45 228.02C769.889 233.504 769.442 239.534 772.453 241.49C775.464 243.445 780.791 240.584 784.353 235.1Z" fill="black"/>
<path opacity="0.1" d="M800.61 88.02C800.61 88.02 820.22 102.49 842.73 99.27C865.24 96.05 878.1 195.74 878.1 195.74C878.1 195.74 886.46 247.19 859.45 242.69L799.67 222.75C799.67 222.75 812.53 209.24 810.6 191.88L839.54 203.46L838.25 148.15L800.61 88.02Z" fill="black"/>
<path opacity="0.1" d="M876.81 194.46C876.81 194.46 885.17 245.91 858.16 241.41L798.35 221.47C798.35 221.47 811.21 207.96 809.28 190.6L838.22 202.18L876.81 194.46Z" fill="black"/>
<path d="M810.67 197.38C810.67 197.38 790.67 170.99 775.86 183.65C761.05 196.31 805.41 219.54 805.41 219.54L810.67 197.38Z" fill="#A1616A"/>
<path d="M800.61 86.74C800.61 86.74 820.22 101.21 842.73 97.99C865.24 94.77 878.1 194.46 878.1 194.46C878.1 194.46 886.46 245.91 859.45 241.41L799.67 221.47C799.67 221.47 812.53 207.96 810.6 190.6L839.54 202.18L838.25 146.87L805.45 119.87L800.61 86.74Z" fill="#67647E"/>
<path opacity="0.1" d="M761.05 79.34L797.71 70.34C797.71 70.34 795.8 72.5 798.03 80.95C792.13 87.72 784.88 96.71 775.2 96.71C768.273 96.723 761.528 94.4877 755.98 90.34C758.05 86.8609 759.75 83.1741 761.05 79.34V79.34Z" fill="black"/>
<path d="M775.84 95.42C793.602 95.42 808 81.0215 808 63.26C808 45.4985 793.602 31.1 775.84 31.1C758.079 31.1 743.68 45.4985 743.68 63.26C743.68 81.0215 758.079 95.42 775.84 95.42Z" fill="#A1616A"/>
<path opacity="0.1" d="M763.67 49.31C756.21 48.04 748.01 44.73 745.51 37.59C743.91 33.02 745.13 27.82 747.74 23.75C750.35 19.68 754.19 16.55 758.15 13.75C764.58 9.23 771.67 5.35 779.41 3.99C780.744 3.67094 782.135 3.67094 783.47 3.99C784.631 4.46503 785.734 5.06881 786.76 5.79C792.05 8.84 798.63 7.52 804.76 7.2C810.89 6.88 818.24 8.61 820.17 14.4C820.77 16.19 820.73 18.12 821.17 19.96C822.17 24.46 825.56 27.96 828.17 31.71C830.78 35.46 832.79 40.53 830.59 44.57C829.84 45.94 828.59 47.2 828.59 48.76C828.783 49.8688 829.119 50.9478 829.59 51.97C830.5 55.29 827.85 58.64 824.79 60.22C821.73 61.8 818.21 62.29 815.09 63.76C812.17 65.201 809.725 67.4505 808.046 70.2408C806.367 73.0311 805.525 76.245 805.62 79.5C802.78 79.83 799.47 80 797.55 77.88C796.69 76.93 796.27 75.66 795.49 74.65C794.49 73.33 792.93 72.55 791.65 71.49C784.92 65.96 789.7 58.32 785.89 52.36C783.89 49.29 780.71 50.23 777.49 50.28C772.863 50.3883 768.236 50.0635 763.67 49.31V49.31Z" fill="black"/>
<path d="M764.3 48.65C756.84 47.38 748.64 44.07 746.14 36.93C744.54 32.36 745.76 27.16 748.37 23.09C750.98 19.02 754.82 15.89 758.78 13.09C765.21 8.57 772.3 4.69 780.04 3.33C781.374 3.01093 782.765 3.01093 784.1 3.33C785.261 3.80503 786.364 4.4088 787.39 5.13C792.68 8.18 799.26 6.86 805.39 6.54C811.52 6.22 818.87 7.94999 820.8 13.74C821.4 15.53 821.36 17.46 821.8 19.3C822.8 23.8 826.19 27.3 828.8 31.05C831.41 34.8 833.42 39.87 831.22 43.91C830.47 45.28 829.22 46.54 829.22 48.1C829.413 49.2088 829.749 50.2878 830.22 51.31C831.13 54.63 828.48 57.98 825.42 59.56C822.36 61.14 818.84 61.63 815.72 63.1C812.8 64.541 810.355 66.7905 808.676 69.5808C806.997 72.3711 806.155 75.5849 806.25 78.84C803.41 79.17 800.1 79.34 798.18 77.22C797.32 76.27 796.9 75 796.12 73.99C795.12 72.67 793.56 71.89 792.28 70.83C785.55 65.3 790.33 57.66 786.52 51.7C784.52 48.63 781.34 49.57 778.12 49.62C773.493 49.7283 768.866 49.4035 764.3 48.65V48.65Z" fill="#4A4347"/>
<path opacity="0.1" d="M725.36 156.84C725.36 156.84 718.29 193.5 721.5 207.65C723.461 215.882 723.171 224.489 720.66 232.57" fill="black"/>
<path opacity="0.1" d="M839.67 172.27C839.67 172.27 842.75 196.71 837.62 201.85Z" fill="black"/>
<path d="M660.09 473.46C660.488 473.46 660.869 473.302 661.151 473.021C661.432 472.739 661.59 472.358 661.59 471.96C661.59 471.562 661.432 471.181 661.151 470.899C660.869 470.618 660.488 470.46 660.09 470.46C659.692 470.46 659.311 470.618 659.029 470.899C658.748 471.181 658.59 471.562 658.59 471.96C658.59 472.358 658.748 472.739 659.029 473.021C659.311 473.302 659.692 473.46 660.09 473.46V473.46Z" fill="black"/>
<path d="M393.593 225.082L351.929 208.079L349.284 214.56L390.948 231.563L393.593 225.082Z" fill="#E6E6E6"/>
<path opacity="0.1" d="M410.032 235.56C411.701 231.469 407.015 225.688 399.564 222.648C392.114 219.607 384.721 220.459 383.052 224.549C381.382 228.64 386.069 234.421 393.519 237.462C400.969 240.502 408.362 239.651 410.032 235.56Z" fill="black"/>
<path d="M410.82 235.87C412.49 231.779 407.803 225.998 400.353 222.958C392.903 219.917 385.51 220.769 383.84 224.86C382.171 228.95 386.857 234.731 394.308 237.772C401.758 240.812 409.151 239.961 410.82 235.87Z" fill="#E6E6E6"/>
<path opacity="0.1" d="M408.293 234.838C409.649 231.515 405.841 226.817 399.786 224.347C393.732 221.876 387.724 222.567 386.368 225.891C385.011 229.215 388.82 233.912 394.874 236.383C400.929 238.854 406.936 238.162 408.293 234.838Z" fill="black"/>
</g>
<defs>
<filter id="filter0_i" x="7.01953" y="1.73199" width="811.078" height="549.373" filterUnits="userSpaceOnUse" color-interpolation-filters="sRGB">
<feFlood flood-opacity="0" result="BackgroundImageFix"/>
<feBlend mode="normal" in="SourceGraphic" in2="BackgroundImageFix" result="shape"/>
<feColorMatrix in="SourceAlpha" type="matrix" values="0 0 0 0 0 0 0 0 0 0 0 0 0 0 0 0 0 0 127 0" result="hardAlpha"/>
<feOffset dy="4"/>
<feGaussianBlur stdDeviation="2"/>
<feComposite in2="hardAlpha" operator="arithmetic" k2="-1" k3="1"/>
<feColorMatrix type="matrix" values="0 0 0 0 0 0 0 0 0 0 0 0 0 0 0 0 0 0 0.25 0"/>
<feBlend mode="normal" in2="shape" result="effect1_innerShadow"/>
</filter>
<linearGradient id="paint0_linear" x1="177.11" y1="89.0869" x2="721.953" y2="271.36" gradientUnits="userSpaceOnUse">
<stop stop-color="#1AC0C6"/>
<stop offset="1" stop-color="#134E6F"/>
</linearGradient>
<linearGradient id="paint1_linear" x1="-225569" y1="563953" x2="-225569" y2="89879.4" gradientUnits="userSpaceOnUse">
<stop stop-color="#808080" stop-opacity="0.25"/>
<stop offset="0.54" stop-color="#808080" stop-opacity="0.12"/>
<stop offset="1" stop-color="#808080" stop-opacity="0.1"/>
</linearGradient>
<linearGradient id="paint2_linear" x1="-177351" y1="246201" x2="-223185" y2="246201" gradientUnits="userSpaceOnUse">
<stop stop-color="#808080" stop-opacity="0.25"/>
<stop offset="0.54" stop-color="#808080" stop-opacity="0.12"/>
<stop offset="1" stop-color="#808080" stop-opacity="0.1"/>
</linearGradient>
<clipPath id="clip0">
<rect width="883.34" height="785.3" fill="white"/>
</clipPath>
</defs>
</svg>
