<svg width="815" height="785" viewBox="0 0 815 785" fill="none" xmlns="http://www.w3.org/2000/svg">
<g clip-path="url(#clip0)">
<path d="M470.944 765.389L241.729 766.148C180.919 747.876 131.097 684.412 130.782 589.261C130.721 574.927 131.804 560.611 134.02 546.449L318.642 504.971L461.066 472.976C471.561 482.374 481.34 492.542 490.322 503.395L354.132 575.308L289.885 609.234L362.079 584.327L511.923 532.633C521.267 546.92 529.593 561.847 536.839 577.305L491.628 624.03L542.772 590.548C542.991 591.06 543.208 591.574 543.425 592.089C575.838 669.039 535.622 765.175 470.944 765.389Z" fill="#F2F2F2"/>
<path d="M433.275 451.44C398.612 461.395 355.996 473.973 312.181 487.047C248.829 505.955 182.972 525.908 135.025 540.494L135.057 540.323C136.829 530.088 140.995 520.417 147.217 512.098C182.734 465.919 227.959 433.66 278.293 421.68H278.298C292.451 418.303 306.948 416.574 321.499 416.525C361.545 416.393 399.477 428.953 433.275 451.44Z" fill="#F2F2F2"/>
<g filter="url(#filter0_i)">
<path d="M203.323 201.248C201.944 201.624 199.751 202 196.743 202.376C193.86 202.752 190.978 202.94 188.095 202.94C185.212 202.94 182.643 202.689 180.387 202.188C178.256 201.812 176.439 201.06 174.935 199.932C173.431 198.804 172.303 197.237 171.551 195.232C170.799 193.227 170.423 190.595 170.423 187.336V158.008H134.327V201.248C132.948 201.624 130.755 202 127.747 202.376C124.864 202.752 121.982 202.94 119.099 202.94C116.216 202.94 113.647 202.689 111.391 202.188C109.26 201.812 107.443 201.06 105.939 199.932C104.435 198.804 103.307 197.237 102.555 195.232C101.803 193.227 101.427 190.595 101.427 187.336V88.072C102.806 87.8213 104.999 87.508 108.007 87.132C111.015 86.6307 113.898 86.38 116.655 86.38C119.538 86.38 122.044 86.6307 124.175 87.132C126.431 87.508 128.311 88.26 129.815 89.388C131.319 90.516 132.447 92.0827 133.199 94.088C133.951 96.0933 134.327 98.7253 134.327 101.984V132.064H170.423V88.072C171.802 87.8213 173.995 87.508 177.003 87.132C180.011 86.6307 182.894 86.38 185.651 86.38C188.534 86.38 191.04 86.6307 193.171 87.132C195.427 87.508 197.307 88.26 198.811 89.388C200.315 90.516 201.443 92.0827 202.195 94.088C202.947 96.0933 203.323 98.7253 203.323 101.984V201.248ZM264.4 181.696C266.53 181.696 268.849 181.508 271.356 181.132C273.988 180.631 275.93 180.004 277.184 179.252V164.212L263.648 165.34C260.138 165.591 257.256 166.343 255 167.596C252.744 168.849 251.616 170.729 251.616 173.236C251.616 175.743 252.556 177.811 254.436 179.44C256.441 180.944 259.762 181.696 264.4 181.696ZM262.896 107.812C269.664 107.812 275.805 108.501 281.32 109.88C286.96 111.259 291.722 113.389 295.608 116.272C299.618 119.029 302.689 122.601 304.82 126.988C306.95 131.249 308.016 136.325 308.016 142.216V184.328C308.016 187.587 307.076 190.281 305.196 192.412C303.441 194.417 301.31 196.172 298.804 197.676C290.657 202.564 279.189 205.008 264.4 205.008C257.757 205.008 251.741 204.381 246.352 203.128C241.088 201.875 236.513 199.995 232.628 197.488C228.868 194.981 225.922 191.785 223.792 187.9C221.786 184.015 220.784 179.503 220.784 174.364C220.784 165.716 223.353 159.073 228.492 154.436C233.63 149.799 241.589 146.916 252.368 145.788L276.996 143.156V141.84C276.996 138.205 275.366 135.636 272.108 134.132C268.974 132.503 264.4 131.688 258.384 131.688C253.621 131.688 248.984 132.189 244.472 133.192C239.96 134.195 235.886 135.448 232.252 136.952C230.622 135.824 229.244 134.132 228.116 131.876C226.988 129.495 226.424 127.051 226.424 124.544C226.424 121.285 227.176 118.716 228.68 116.836C230.309 114.831 232.753 113.139 236.012 111.76C239.646 110.381 243.908 109.379 248.796 108.752C253.809 108.125 258.509 107.812 262.896 107.812ZM385.461 144.096C385.461 140.211 384.333 137.391 382.077 135.636C379.947 133.756 377.001 132.816 373.241 132.816C370.735 132.816 368.228 133.129 365.721 133.756C363.34 134.383 361.272 135.323 359.517 136.576V201.812C358.264 202.188 356.259 202.564 353.501 202.94C350.869 203.316 348.112 203.504 345.229 203.504C342.472 203.504 339.965 203.316 337.709 202.94C335.579 202.564 333.761 201.812 332.257 200.684C330.753 199.556 329.563 198.052 328.685 196.172C327.933 194.167 327.557 191.597 327.557 188.464V132.064C327.557 128.68 328.247 125.923 329.625 123.792C331.129 121.661 333.135 119.719 335.641 117.964C339.903 114.956 345.229 112.512 351.621 110.632C358.139 108.752 365.345 107.812 373.241 107.812C387.404 107.812 398.308 110.945 405.953 117.212C413.599 123.353 417.421 131.939 417.421 142.968V201.812C416.168 202.188 414.163 202.564 411.405 202.94C408.773 203.316 406.016 203.504 403.133 203.504C400.376 203.504 397.869 203.316 395.613 202.94C393.483 202.564 391.665 201.812 390.161 200.684C388.657 199.556 387.467 198.052 386.589 196.172C385.837 194.167 385.461 191.597 385.461 188.464V144.096ZM433.215 156.316C433.215 148.044 434.468 140.9 436.975 134.884C439.481 128.743 442.928 123.667 447.315 119.656C451.827 115.645 457.028 112.7 462.919 110.82C468.935 108.815 475.389 107.812 482.283 107.812C484.789 107.812 487.233 108.063 489.615 108.564C491.996 108.94 493.939 109.441 495.443 110.068V79.612C496.696 79.236 498.701 78.86 501.459 78.484C504.216 77.9827 507.036 77.732 509.919 77.732C512.676 77.732 515.12 77.92 517.251 78.296C519.507 78.672 521.387 79.424 522.891 80.552C524.395 81.68 525.523 83.2467 526.275 85.252C527.027 87.132 527.403 89.6387 527.403 92.772V181.884C527.403 187.775 524.645 192.475 519.131 195.984C515.496 198.365 510.796 200.433 505.031 202.188C499.265 204.068 492.623 205.008 485.103 205.008C476.956 205.008 469.624 203.88 463.107 201.624C456.715 199.368 451.263 196.109 446.751 191.848C442.364 187.587 438.98 182.511 436.599 176.62C434.343 170.604 433.215 163.836 433.215 156.316ZM486.607 132.816C479.839 132.816 474.637 134.759 471.003 138.644C467.368 142.529 465.551 148.42 465.551 156.316C465.551 164.087 467.243 169.977 470.627 173.988C474.011 177.873 478.899 179.816 485.291 179.816C487.547 179.816 489.552 179.503 491.307 178.876C493.187 178.124 494.628 177.309 495.631 176.432V135.072C493.124 133.568 490.116 132.816 486.607 132.816ZM624.399 174.74C624.399 184.265 620.827 191.723 613.683 197.112C606.539 202.501 596.011 205.196 582.099 205.196C576.835 205.196 571.947 204.82 567.435 204.068C562.923 203.316 559.038 202.188 555.779 200.684C552.646 199.055 550.139 197.049 548.259 194.668C546.504 192.287 545.627 189.467 545.627 186.208C545.627 183.2 546.254 180.693 547.507 178.688C548.76 176.557 550.264 174.803 552.019 173.424C555.654 175.429 559.79 177.247 564.427 178.876C569.19 180.38 574.642 181.132 580.783 181.132C584.668 181.132 587.614 180.568 589.619 179.44C591.75 178.312 592.815 176.808 592.815 174.928C592.815 173.173 592.063 171.795 590.559 170.792C589.055 169.789 586.548 168.975 583.039 168.348L577.399 167.22C566.495 165.089 558.348 161.768 552.959 157.256C547.695 152.619 545.063 146.039 545.063 137.516C545.063 132.879 546.066 128.68 548.071 124.92C550.076 121.16 552.896 118.027 556.531 115.52C560.166 113.013 564.49 111.071 569.503 109.692C574.642 108.313 580.282 107.624 586.423 107.624C591.06 107.624 595.384 108 599.395 108.752C603.531 109.379 607.103 110.381 610.111 111.76C613.119 113.139 615.5 114.956 617.255 117.212C619.01 119.343 619.887 121.912 619.887 124.92C619.887 127.803 619.323 130.309 618.195 132.44C617.192 134.445 615.876 136.137 614.247 137.516C613.244 136.889 611.74 136.263 609.735 135.636C607.73 134.884 605.536 134.257 603.155 133.756C600.774 133.129 598.33 132.628 595.823 132.252C593.442 131.876 591.248 131.688 589.243 131.688C585.107 131.688 581.911 132.189 579.655 133.192C577.399 134.069 576.271 135.511 576.271 137.516C576.271 138.895 576.898 140.023 578.151 140.9C579.404 141.777 581.786 142.592 585.295 143.344L591.123 144.66C603.155 147.417 611.678 151.24 616.691 156.128C621.83 160.891 624.399 167.095 624.399 174.74ZM-5.49023 557.096C-6.23893 557.031 -6.84115 556.542 -7.29688 555.631C-7.7526 554.719 -7.98047 553.71 -7.98047 552.604C-7.98047 552.083 -7.93164 551.578 -7.83398 551.09C-7.76888 550.569 -7.63867 550.113 -7.44336 549.723C-7.24805 549.332 -7.00391 549.023 -6.71094 548.795C-6.41797 548.535 -6.07617 548.404 -5.68555 548.404C-4.48112 548.404 -3.09766 548.372 -1.53516 548.307C0.0273438 548.209 1.70378 548.111 3.49414 548.014C4.4056 547.916 4.91016 547.379 5.00781 546.402C5.30078 541.682 5.70768 537.613 6.22852 534.195C6.74935 530.777 7.38411 527.896 8.13281 525.553C8.88151 523.176 9.72786 521.256 10.6719 519.791C11.6484 518.326 12.7227 517.203 13.8945 516.422C14.2526 516.161 14.6758 515.901 15.1641 515.641C15.6523 515.348 16.1081 515.201 16.5312 515.201C17.3451 515.201 18.1914 515.413 19.0703 515.836C19.9818 516.227 20.8118 516.747 21.5605 517.398C22.3418 518.017 22.9766 518.733 23.4648 519.547C23.9531 520.328 24.1973 521.109 24.1973 521.891C24.1973 522.184 24.1322 522.428 24.002 522.623C23.8717 522.786 23.709 522.949 23.5137 523.111C22.2441 524.055 21.1211 525.113 20.1445 526.285C19.168 527.457 18.3379 528.889 17.6543 530.582C16.9707 532.275 16.401 534.309 15.9453 536.686C15.4896 539.062 15.1478 541.926 14.9199 545.279C14.9199 545.8 15.0013 546.191 15.1641 546.451C15.3594 546.679 15.7012 546.793 16.1895 546.793C17.459 546.793 18.7285 546.695 19.998 546.5C21.3001 546.305 22.5371 546.109 23.709 545.914C24.8809 545.686 25.9876 545.475 27.0293 545.279C28.071 545.084 28.9987 544.986 29.8125 544.986C30.3984 544.986 30.8216 545.344 31.082 546.061C31.375 546.744 31.5215 547.59 31.5215 548.6C31.5215 549.186 31.4727 549.788 31.375 550.406C31.2773 551.025 31.1146 551.578 30.8867 552.066C30.6914 552.555 30.431 552.978 30.1055 553.336C29.7799 553.661 29.373 553.857 28.8848 553.922L15.8965 555.289C15.2129 555.387 14.7897 555.663 14.627 556.119C14.4967 556.575 14.4316 557.21 14.4316 558.023C14.4316 565.217 14.6107 571.402 14.9688 576.578C15.3268 581.754 15.7174 586.1 16.1406 589.615C16.5964 593.163 17.0033 595.947 17.3613 597.965C17.7194 600.016 17.8984 601.497 17.8984 602.408C17.8984 603.092 17.6217 603.71 17.0684 604.264C16.5475 604.817 15.8639 605.289 15.0176 605.68C14.2038 606.07 13.3086 606.363 12.332 606.559C11.3555 606.786 10.444 606.9 9.59766 606.9C8.78385 606.9 8.05143 606.754 7.40039 606.461C6.7819 606.201 6.42383 605.745 6.32617 605.094C6.00065 602.815 5.72396 600.309 5.49609 597.574C5.26823 594.872 5.07292 591.861 4.91016 588.541C4.77995 585.253 4.68229 581.656 4.61719 577.75C4.55208 573.811 4.51953 569.498 4.51953 564.811C4.51953 563.606 4.51953 562.434 4.51953 561.295C4.51953 560.156 4.55208 559.016 4.61719 557.877C4.61719 556.9 4.08008 556.412 3.00586 556.412L-5.49023 557.096ZM29.959 567.789C29.959 567.236 30.0241 566.617 30.1543 565.934C30.2845 565.25 30.3496 564.501 30.3496 563.688C30.3496 563.134 30.1055 562.711 29.6172 562.418C29.1615 562.125 28.6406 561.799 28.0547 561.441C27.4688 561.083 26.9316 560.628 26.4434 560.074C25.9876 559.521 25.7598 558.723 25.7598 557.682C25.7598 556.933 25.9551 556.184 26.3457 555.436C26.7689 554.687 27.3711 554.003 28.1523 553.385C30.0729 551.952 32.0586 550.667 34.1094 549.527C36.1927 548.388 38.2598 547.428 40.3105 546.646C42.3939 545.865 44.4447 545.263 46.4629 544.84C48.4811 544.417 50.418 544.205 52.2734 544.205C55.3984 544.205 58.3281 544.791 61.0625 545.963C63.8294 547.102 66.222 548.681 68.2402 550.699C70.291 552.685 71.9023 555.029 73.0742 557.73C74.2786 560.4 74.8809 563.264 74.8809 566.324C74.8809 569.319 74.2461 572.167 72.9766 574.869C71.7396 577.538 70.0632 579.882 67.9473 581.9C65.8314 583.919 63.3411 585.514 60.4766 586.686C57.6445 587.89 54.6497 588.492 51.4922 588.492C48.3997 588.492 45.5352 587.971 42.8984 586.93C40.2617 585.888 37.9831 584.456 36.0625 582.633C34.1419 580.777 32.6445 578.596 31.5703 576.09C30.4961 573.551 29.959 570.784 29.959 567.789ZM52.5664 579.703C53.9336 579.703 55.3496 579.426 56.8145 578.873C58.2793 578.32 59.6139 577.522 60.8184 576.48C62.0553 575.406 63.0645 574.104 63.8457 572.574C64.6595 571.044 65.0664 569.319 65.0664 567.398C65.0664 565.445 64.7083 563.622 63.9922 561.93C63.276 560.237 62.2832 558.772 61.0137 557.535C59.7767 556.266 58.2956 555.273 56.5703 554.557C54.8776 553.84 53.0384 553.482 51.0527 553.482C47.4395 553.482 44.6725 554.426 42.752 556.314C40.8314 558.17 39.8711 561.035 39.8711 564.908C39.8711 567.024 40.1803 568.993 40.7988 570.816C41.4499 572.607 42.3451 574.169 43.4844 575.504C44.6237 576.806 45.9583 577.831 47.4883 578.58C49.0508 579.329 50.7435 579.703 52.5664 579.703ZM107.742 547.477C106.538 547.477 105.48 547.802 104.568 548.453C103.657 549.072 102.876 549.951 102.225 551.09C101.574 552.197 101.036 553.515 100.613 555.045C100.19 556.542 99.8483 558.186 99.5879 559.977C99.3275 561.767 99.1484 563.639 99.0508 565.592C98.9531 567.545 98.9043 569.514 98.9043 571.5C98.9043 574.104 99.002 576.676 99.1973 579.215C99.4251 581.721 99.5391 584.049 99.5391 586.197C99.5391 587.597 99.0182 588.688 97.9766 589.469C96.9349 590.283 95.4538 590.689 93.5332 590.689C93.1751 590.689 92.7682 590.657 92.3125 590.592C91.8568 590.527 91.4173 590.396 90.9941 590.201C90.6035 590.006 90.2454 589.729 89.9199 589.371C89.627 589.046 89.4642 588.59 89.4316 588.004C89.1387 585.139 88.7155 582.21 88.1621 579.215C87.6087 576.22 86.9089 573.242 86.0625 570.279C85.2487 567.285 84.2559 564.322 83.084 561.393C81.9447 558.463 80.6263 555.598 79.1289 552.799C78.8685 552.311 78.6406 551.855 78.4453 551.432C78.2826 551.008 78.2012 550.602 78.2012 550.211C78.2012 549.723 78.4128 549.202 78.8359 548.648C79.2917 548.062 79.8451 547.525 80.4961 547.037C81.1797 546.549 81.9121 546.158 82.6934 545.865C83.5072 545.54 84.2884 545.377 85.0371 545.377C86.2741 545.377 87.3646 546.24 88.3086 547.965C89.2526 549.658 90.1315 552.376 90.9453 556.119C91.1081 556.77 91.2383 557.226 91.3359 557.486C91.4336 557.747 91.5638 557.877 91.7266 557.877C92.0846 557.877 92.3125 557.324 92.4102 556.217C92.8008 553.124 93.4681 550.471 94.4121 548.258C95.3561 546.012 96.528 544.173 97.9277 542.74C99.36 541.275 100.988 540.201 102.811 539.518C104.666 538.834 106.701 538.492 108.914 538.492C110.184 538.492 111.469 538.606 112.771 538.834C114.074 539.062 115.245 539.404 116.287 539.859C117.329 540.315 118.175 540.868 118.826 541.52C119.477 542.171 119.803 542.903 119.803 543.717C119.803 544.303 119.673 545.003 119.412 545.816C119.184 546.598 118.875 547.363 118.484 548.111C118.094 548.827 117.638 549.446 117.117 549.967C116.629 550.455 116.124 550.699 115.604 550.699C115.018 550.699 114.448 550.536 113.895 550.211C113.341 549.853 112.739 549.479 112.088 549.088C111.469 548.697 110.802 548.339 110.086 548.014C109.402 547.656 108.621 547.477 107.742 547.477ZM304.824 584H277.285V526.719H223.584V584H196.045V450.344H223.584V504.504H277.285V450.344H304.824V584ZM386.707 573.902C380.159 581.858 371.102 585.836 359.535 585.836C348.887 585.836 340.747 582.776 335.117 576.656C329.548 570.536 326.702 561.571 326.58 549.76V484.676H353.109V548.842C353.109 559.184 357.822 564.355 367.246 564.355C376.242 564.355 382.423 561.234 385.789 554.992V484.676H412.41V584H387.441L386.707 573.902ZM456.84 484.676L457.666 496.15C464.765 487.277 474.281 482.84 486.215 482.84C496.741 482.84 504.574 485.93 509.715 492.111C514.855 498.292 517.487 507.533 517.609 519.834V584H491.08V520.477C491.08 514.846 489.856 510.777 487.408 508.268C484.96 505.697 480.891 504.412 475.199 504.412C467.733 504.412 462.133 507.594 458.4 513.959V584H431.871V484.676H456.84ZM533.949 533.604C533.949 518.365 537.56 506.095 544.781 496.793C552.064 487.491 561.855 482.84 574.156 482.84C585.049 482.84 593.525 486.573 599.584 494.039L600.686 484.676H624.736V580.695C624.736 589.385 622.747 596.943 618.77 603.369C614.853 609.795 609.314 614.691 602.154 618.057C594.994 621.423 586.61 623.105 577.002 623.105C569.719 623.105 562.62 621.637 555.705 618.699C548.79 615.823 543.557 612.09 540.008 607.5L551.758 591.344C558.367 598.749 566.384 602.451 575.809 602.451C582.846 602.451 588.324 600.554 592.24 596.76C596.157 593.027 598.115 587.702 598.115 580.787V575.463C591.995 582.378 583.948 585.836 573.973 585.836C562.039 585.836 552.37 581.185 544.965 571.883C537.621 562.52 533.949 550.127 533.949 534.705V533.604ZM560.479 535.531C560.479 544.527 562.284 551.596 565.895 556.736C569.505 561.816 574.462 564.355 580.766 564.355C588.844 564.355 594.627 561.326 598.115 555.268V513.5C594.566 507.441 588.844 504.412 580.949 504.412C574.585 504.412 569.566 507.013 565.895 512.215C562.284 517.417 560.479 525.189 560.479 535.531ZM690.922 585.836C676.357 585.836 664.484 581.368 655.305 572.434C646.186 563.499 641.627 551.596 641.627 536.725V534.154C641.627 524.179 643.555 515.275 647.41 507.441C651.266 499.547 656.712 493.488 663.75 489.266C670.849 484.982 678.927 482.84 687.984 482.84C701.57 482.84 712.249 487.124 720.021 495.691C727.855 504.259 731.771 516.407 731.771 532.135V542.967H668.523C669.38 549.454 671.951 554.656 676.234 558.572C680.579 562.489 686.057 564.447 692.666 564.447C702.886 564.447 710.872 560.745 716.625 553.34L729.66 567.936C725.682 573.566 720.297 577.972 713.504 581.154C706.711 584.275 699.184 585.836 690.922 585.836ZM687.893 504.32C682.63 504.32 678.346 506.095 675.041 509.645C671.798 513.194 669.717 518.273 668.799 524.883H705.701V522.771C705.579 516.896 703.988 512.368 700.928 509.186C697.868 505.942 693.523 504.32 687.893 504.32ZM802.73 509.553C799.12 509.063 795.938 508.818 793.184 508.818C783.147 508.818 776.568 512.215 773.447 519.008V584H746.918V484.676H771.979L772.713 496.518C778.037 487.399 785.411 482.84 794.836 482.84C797.773 482.84 800.527 483.238 803.098 484.033L802.73 509.553Z" fill="url(#paint0_linear)"/>
</g>
<path d="M284.729 785C370.885 785 440.729 774.926 440.729 762.5C440.729 750.074 370.885 740 284.729 740C198.572 740 128.729 750.074 128.729 762.5C128.729 774.926 198.572 785 284.729 785Z" fill="#3F3D56"/>
<path d="M229.229 552.5V587.5L254.229 590.5L269.229 571.5L257.229 547.5L229.229 552.5Z" fill="#FBBEBE"/>
<path d="M324.229 696.5L337.229 731.5L361.229 723.5L343.229 694.5L324.229 696.5Z" fill="#FBBEBE"/>
<path d="M294.229 398.5C294.229 398.5 164.229 385.5 168.229 421.5C172.229 457.5 229.229 560.5 229.229 560.5L267.229 553.5C267.229 553.5 240.229 511.5 242.229 497.5C244.229 483.5 236.229 464.5 236.229 464.5L255.229 467.5L266.229 484.5L289.229 602.5L324.229 708.5L350.229 701.5C350.229 701.5 336.229 657.5 340.229 643.5C344.229 629.5 321.229 575.5 321.229 575.5L337.229 481.5C337.229 481.5 368.229 472.5 359.229 441.5C350.229 410.5 294.229 398.5 294.229 398.5Z" fill="#2F2E41"/>
<path d="M240.229 576.5C240.229 576.5 225.229 564.5 226.229 569.5C226.794 573.145 226.794 576.855 226.229 580.5L212.229 611.5C212.229 611.5 178.229 642.5 209.229 643.5C240.229 644.5 256.229 612.5 256.229 612.5C256.229 612.5 299.229 580.5 294.229 575.5C289.229 570.5 262.987 559.017 262.987 559.017C262.987 559.017 254.229 583.5 240.229 576.5Z" fill="#2F2E41"/>
<path d="M336.229 715.5C336.229 715.5 322.229 702.5 321.229 708.5C320.229 714.5 319.229 722.5 319.229 722.5L298.229 742.5C298.229 742.5 268.229 771.5 294.229 772.5C301.743 772.839 309.238 771.488 316.161 768.546C323.084 765.604 329.258 761.146 334.229 755.5C334.229 755.5 372.229 747.5 370.229 741.5C368.229 735.5 358.2 712.288 353.715 711.394C349.229 710.5 348.229 723.5 336.229 715.5Z" fill="#2F2E41"/>
<path d="M288.229 254.5C305.349 254.5 319.229 240.621 319.229 223.5C319.229 206.379 305.349 192.5 288.229 192.5C271.108 192.5 257.229 206.379 257.229 223.5C257.229 240.621 271.108 254.5 288.229 254.5Z" fill="#FBBEBE"/>
<path d="M274.229 244.5C274.229 244.5 287.229 279.5 286.229 282.5C285.229 285.5 327.229 257.5 327.229 257.5C327.229 257.5 309.229 253.5 309.229 237.5L274.229 244.5Z" fill="#FBBEBE"/>
<path d="M388.229 295.5C388.229 295.5 406.229 313.5 409.229 319.5C412.229 325.5 480.229 401.5 480.229 401.5C480.229 401.5 525.229 454.5 507.229 455.5C489.229 456.5 466.229 413.5 466.229 413.5C466.229 413.5 402.229 366.5 399.229 355.5L362.229 317.5L388.229 295.5Z" fill="#FBBEBE"/>
<path d="M294.229 274.5H283.229L268.229 298.5C268.229 298.5 253.229 311.5 264.229 338.5C275.229 365.5 284.229 399.5 284.229 399.5C284.229 399.5 316.229 403.5 322.229 413.5C328.229 423.5 362.229 455.5 362.229 455.5C362.229 455.5 368.229 434.5 366.229 403.5C364.229 372.5 366.229 325.5 366.229 325.5L364.229 263.5C364.229 263.5 325.605 254.548 322.917 256.024C320.229 257.5 294.229 274.5 294.229 274.5Z" fill="#575A89"/>
<path d="M349.229 266.5L364.229 263.5C364.229 263.5 380.229 273.5 395.229 302.5C395.229 302.5 363.229 323.5 360.229 322.5C357.229 321.5 349.229 266.5 349.229 266.5Z" fill="#575A89"/>
<path d="M257.229 334.5C257.229 334.5 234.229 371.5 241.229 385.5C248.229 399.5 257.229 398.5 257.229 398.5C257.229 398.5 274.229 395.5 274.229 381.5C274.229 367.5 281.229 366.5 281.229 366.5C281.229 366.5 325.229 330.5 308.229 330.5C291.229 330.5 268.229 355.5 268.229 355.5L267.229 332.5L257.229 334.5Z" fill="#FBBEBE"/>
<path d="M272.229 297.5C272.229 297.5 257.229 301.5 254.229 317.5C251.229 333.5 252.229 341.5 252.229 341.5L272.229 339.5V297.5Z" fill="#575A89"/>
<path opacity="0.1" d="M244.229 377.5C244.229 377.5 260.229 356.5 262.229 359.5L244.229 377.5Z" fill="black"/>
<path d="M303.977 185.971C303.977 185.971 287.537 169.545 271.71 180.574C255.883 191.602 248.512 202.107 250.279 209.24C252.046 216.374 256.98 226.231 256.98 226.231C256.98 226.231 253.687 211.443 266.993 209.995C280.299 208.546 298.491 199.24 298.491 199.24L311.649 225.527C311.649 225.527 313.249 219.314 318.18 220.955C323.111 222.596 318.406 187.568 303.977 185.971Z" fill="#2F2E41"/>
<path d="M191.482 735.894C191.482 750.475 182.814 755.566 172.121 755.566C171.873 755.566 171.626 755.564 171.379 755.558C170.884 755.548 170.393 755.524 169.908 755.491C160.258 754.808 152.76 749.455 152.76 735.894C152.76 721.861 170.694 704.153 172.041 702.843L172.043 702.84C172.095 702.789 172.121 702.765 172.121 702.765C172.121 702.765 191.482 721.314 191.482 735.894Z" fill="#6C63FF"/>
<path d="M171.416 753.336L178.497 743.441L171.398 754.422L171.379 755.558C170.884 755.548 170.393 755.524 169.908 755.491L170.671 740.903L170.665 740.79L170.678 740.768L170.75 739.391L163.634 728.383L170.773 738.357L170.789 738.65L171.366 727.628L165.274 716.253L171.44 725.693L172.041 702.842L172.043 702.765V702.84L171.943 720.859L178.008 713.716L171.918 722.412L171.758 732.28L177.421 722.809L171.734 733.732L171.645 739.219L179.866 726.037L171.614 741.133L171.416 753.336Z" fill="#3F3D56"/>
<path d="M538.537 436.682C538.614 436.3 540.543 427.165 550.632 413.838C559.889 401.612 578.097 383.418 612.273 366.179C677.018 333.521 691.506 272.165 691.645 271.548L693.375 271.939C693.34 272.095 689.716 287.804 678.053 307.353C662.575 333.256 640.034 354.212 613.072 367.763C548.437 400.365 540.35 436.671 540.275 437.034L538.537 436.682Z" fill="#3F3D56"/>
<path d="M694.956 264.984C701.321 264.984 706.481 259.824 706.481 253.459C706.481 247.095 701.321 241.935 694.956 241.935C688.591 241.935 683.431 247.095 683.431 253.459C683.431 259.824 688.591 264.984 694.956 264.984Z" fill="#6C63FF"/>
<path d="M692.675 320.9C699.04 320.9 704.2 315.74 704.2 309.376C704.2 303.011 699.04 297.851 692.675 297.851C686.311 297.851 681.151 303.011 681.151 309.376C681.151 315.74 686.311 320.9 692.675 320.9Z" fill="#3F3D56"/>
<path d="M655.185 324.824C661.55 324.824 666.71 319.665 666.71 313.3C666.71 306.935 661.55 301.775 655.185 301.775C648.82 301.775 643.661 306.935 643.661 313.3C643.661 319.665 648.82 324.824 655.185 324.824Z" fill="#6C63FF"/>
<path d="M661.012 362.87C667.377 362.87 672.537 357.71 672.537 351.345C672.537 344.981 667.377 339.821 661.012 339.821C654.648 339.821 649.488 344.981 649.488 351.345C649.488 357.71 654.648 362.87 661.012 362.87Z" fill="#6C63FF"/>
<path d="M607.094 363.651C613.459 363.651 618.618 358.491 618.618 352.126C618.618 345.761 613.459 340.601 607.094 340.601C600.729 340.601 595.569 345.761 595.569 352.126C595.569 358.491 600.729 363.651 607.094 363.651Z" fill="#3F3D56"/>
<path d="M543.354 441.727C543.354 441.727 554.192 413.089 594.011 420.996L543.354 441.727Z" fill="#3F3D56"/>
<path d="M533.311 431.713C533.311 431.713 549.977 406.026 520.034 378.613L533.311 431.713Z" fill="#3F3D56"/>
<path d="M806.157 445.349L787.079 437.82L768 430.292L784.059 417.534L800.118 404.775L803.138 425.062L806.157 445.349Z" fill="#F2F2F2"/>
<path d="M38.157 315.349L19.079 307.82L0 300.292L16.059 287.534L32.118 274.775L35.138 295.062L38.157 315.349Z" fill="#F2F2F2"/>
<path d="M644.157 619.574L625.079 612.045L606 604.517L622.059 591.759L638.118 579L641.138 599.287L644.157 619.574Z" fill="#F2F2F2"/>
<path d="M814.102 627.105L796.083 636.902L778.065 646.7L778.589 626.197L779.113 605.693L796.608 616.399L814.102 627.105Z" fill="#F2F2F2"/>
<path d="M135.102 235.105L117.083 244.902L99.065 254.7L99.589 234.197L100.113 213.693L117.608 224.399L135.102 235.105Z" fill="#F2F2F2"/>
</g>
<defs>
<filter id="filter0_i" x="-7.98047" y="77.732" width="811.078" height="549.373" filterUnits="userSpaceOnUse" color-interpolation-filters="sRGB">
<feFlood flood-opacity="0" result="BackgroundImageFix"/>
<feBlend mode="normal" in="SourceGraphic" in2="BackgroundImageFix" result="shape"/>
<feColorMatrix in="SourceAlpha" type="matrix" values="0 0 0 0 0 0 0 0 0 0 0 0 0 0 0 0 0 0 127 0" result="hardAlpha"/>
<feOffset dy="4"/>
<feGaussianBlur stdDeviation="2"/>
<feComposite in2="hardAlpha" operator="arithmetic" k2="-1" k3="1"/>
<feColorMatrix type="matrix" values="0 0 0 0 0 0 0 0 0 0 0 0 0 0 0 0 0 0 0.25 0"/>
<feBlend mode="normal" in2="shape" result="effect1_innerShadow"/>
</filter>
<linearGradient id="paint0_linear" x1="162.11" y1="165.087" x2="706.953" y2="347.36" gradientUnits="userSpaceOnUse">
<stop stop-color="#1AC0C6"/>
<stop offset="1" stop-color="#134E6F"/>
</linearGradient>
<clipPath id="clip0">
<rect width="814.102" height="785" fill="white"/>
</clipPath>
</defs>
</svg>
